<svg width="580" height="385" xmlns="http://www.w3.org/2000/svg">
  <g stroke="null" id="svg_44">
    <rect stroke="null" x="0.00045" transform="matrix(1.1303169608368067,0,0,1.1303169608368067,-0.00047812506456885507,-0.00020558289274399326) " id="svg_27" fill="#F0F0F0" height="341.337" width="512" y="-0.362106"/>
    <circle stroke="null" transform="matrix(1.1303169608368067,0,0,1.1303169608368067,-0.00047812506456885507,-0.00020558289274399326) " id="svg_28" fill="#D80027" r="96" cy="170.300894" cx="256.00045"/>
    <g stroke="null" transform="matrix(1.1303169608368067,0,0,1.1303169608368067,-0.00047812506456885507,-0.00020558289274399326) " id="svg_29"/>
    <g stroke="null" transform="matrix(1.1303169608368067,0,0,1.1303169608368067,-0.00047812506456885507,-0.00020558289274399326) " id="svg_30"/>
    <g stroke="null" transform="matrix(1.1303169608368067,0,0,1.1303169608368067,-0.00047812506456885507,-0.00020558289274399326) " id="svg_31"/>
    <g stroke="null" transform="matrix(1.1303169608368067,0,0,1.1303169608368067,-0.00047812506456885507,-0.00020558289274399326) " id="svg_32"/>
    <g stroke="null" transform="matrix(1.1303169608368067,0,0,1.1303169608368067,-0.00047812506456885507,-0.00020558289274399326) " id="svg_33"/>
    <g stroke="null" transform="matrix(1.1303169608368067,0,0,1.1303169608368067,-0.00047812506456885507,-0.00020558289274399326) " id="svg_34"/>
    <g stroke="null" transform="matrix(1.1303169608368067,0,0,1.1303169608368067,-0.00047812506456885507,-0.00020558289274399326) " id="svg_35"/>
    <g stroke="null" transform="matrix(1.1303169608368067,0,0,1.1303169608368067,-0.00047812506456885507,-0.00020558289274399326) " id="svg_36"/>
    <g stroke="null" transform="matrix(1.1303169608368067,0,0,1.1303169608368067,-0.00047812506456885507,-0.00020558289274399326) " id="svg_37"/>
    <g stroke="null" transform="matrix(1.1303169608368067,0,0,1.1303169608368067,-0.00047812506456885507,-0.00020558289274399326) " id="svg_38"/>
    <g stroke="null" transform="matrix(1.1303169608368067,0,0,1.1303169608368067,-0.00047812506456885507,-0.00020558289274399326) " id="svg_39"/>
    <g stroke="null" transform="matrix(1.1303169608368067,0,0,1.1303169608368067,-0.00047812506456885507,-0.00020558289274399326) " id="svg_40"/>
    <g stroke="null" transform="matrix(1.1303169608368067,0,0,1.1303169608368067,-0.00047812506456885507,-0.00020558289274399326) " id="svg_41"/>
    <g stroke="null" transform="matrix(1.1303169608368067,0,0,1.1303169608368067,-0.00047812506456885507,-0.00020558289274399326) " id="svg_42"/>
    <g stroke="null" transform="matrix(1.1303169608368067,0,0,1.1303169608368067,-0.00047812506456885507,-0.00020558289274399326) " id="svg_43"/>
  </g>
</svg>
