<svg width="580" height="385" xmlns="http://www.w3.org/2000/svg">
  <g stroke="null" id="svg_27">
    <rect stroke="null" x="0.000121" transform="matrix(1.1331381909640643,0,0,1.1331381909640643,0,0) " id="svg_5" fill="#F0F0F0" height="341.337" width="512" y="-0.784757"/>
    <polygon stroke="null" id="svg_6" fill="#D80027" points="326.3439636230469,-0.8927459716796875 253.82286071777344,-0.8927459716796875 253.82286071777344,156.23500061035156 0.0001376049331156537,156.23500061035156 0.0001376049331156537,228.75582885742188 253.82286071777344,228.75582885742188 253.82286071777344,385.8835906982422 326.3439636230469,385.8835906982422 326.3439636230469,228.75582885742188 580.1666870117188,228.75582885742188 580.1666870117188,156.23500061035156 326.3439636230469,156.23500061035156 "/>
    <g stroke="null" transform="matrix(1.1331381909640643,0,0,1.1331381909640643,0,0) " id="svg_7">
      <polygon stroke="null" id="svg_8" fill="#0052B4" points="393.78515625,229.24004036188126 512,294.91606575250626 512,229.24004036188126 "/>
      <polygon stroke="null" id="svg_9" fill="#0052B4" points="311.65185546875,229.24004036188126 512,340.5440564751625 512,309.07011848688126 368.30712890625,229.24004036188126 "/>
      <polygon stroke="null" id="svg_10" fill="#0052B4" points="458.6337890625,340.5440564751625 311.65185546875,258.88017708063126 311.65185546875,340.5440564751625 "/>
    </g>
    <polygon stroke="null" id="svg_11" fill="#F0F0F0" points="353.1449890136719,259.7609405517578 580.1666870117188,385.8835906982422 580.1666870117188,350.21913146972656 417.3426513671875,259.7609405517578 "/>
    <polygon stroke="null" id="svg_12" fill="#D80027" points="353.1449890136719,259.7609405517578 580.1666870117188,385.8835906982422 580.1666870117188,350.21913146972656 417.3426513671875,259.7609405517578 "/>
    <g stroke="null" transform="matrix(1.1331381909640643,0,0,1.1331381909640643,0,0) " id="svg_13">
      <polygon stroke="null" id="svg_14" fill="#0052B4" points="90.3408203125,229.23808723688126 0,279.42802864313126 0,229.23808723688126 "/>
      <polygon stroke="null" id="svg_15" fill="#0052B4" points="200.34814453125,243.39213997125626 200.34814453125,340.5433240532875 25.4912109375,340.5433240532875 "/>
    </g>
    <polygon stroke="null" id="svg_16" fill="#D80027" points="162.82418823242188,259.7609405517578 0.0001376049331156537,350.21913146972656 0.0001376049331156537,385.8835906982422 0.0001376049331156537,385.8835906982422 227.0223846435547,259.7609405517578 "/>
    <g stroke="null" transform="matrix(1.1331381909640643,0,0,1.1331381909640643,0,0) " id="svg_17">
      <polygon stroke="null" id="svg_18" fill="#0052B4" points="118.21484375,110.51617103815079 0,44.84013420343399 0,110.51617103815079 "/>
      <polygon stroke="null" id="svg_19" fill="#0052B4" points="200.34814453125,110.51617103815079 0,-0.7877916693687439 0,30.686085283756256 143.69287109375,110.51617103815079 "/>
      <polygon stroke="null" id="svg_20" fill="#0052B4" points="53.3662109375,-0.7877916693687439 200.34814453125,80.87603431940079 200.34814453125,-0.7877916693687439 "/>
    </g>
    <polygon stroke="null" id="svg_21" fill="#F0F0F0" points="227.0223846435547,125.23014068603516 0.0001376049331156537,-0.8927459716796875 0.0001376049331156537,34.771697998046875 162.82418823242188,125.23014068603516 "/>
    <polygon stroke="null" id="svg_22" fill="#D80027" points="227.0223846435547,125.23014068603516 0.0001376049331156537,-0.8927459716796875 0.0001376049331156537,34.771697998046875 162.82418823242188,125.23014068603516 "/>
    <g stroke="null" transform="matrix(1.1331381909640643,0,0,1.1331381909640643,0,0) " id="svg_23">
      <polygon stroke="null" id="svg_24" fill="#0052B4" points="421.6591796875,110.51812416315079 512,60.32817131280899 512,110.51812416315079 "/>
      <polygon stroke="null" id="svg_25" fill="#0052B4" points="311.65185546875,96.36407142877579 311.65185546875,-0.7868151663569734 486.5087890625,-0.7868151663569734 "/>
    </g>
    <polygon stroke="null" id="svg_26" fill="#D80027" points="417.3426513671875,125.23014068603516 580.1666870117188,34.771697998046875 580.1666870117188,-0.8927459716796875 580.1666870117188,-0.8927459716796875 353.1449890136719,125.23014068603516 "/>
  </g>
</svg>
