<svg width="580" height="385" xmlns="http://www.w3.org/2000/svg">
  <g stroke="null" id="svg_49">
    <polygon stroke="null" id="svg_32" fill="#D80027" points="222.73812866955996,-0.88494873046875 -0.08343505859375,-0.88494873046875 -0.08343505859375,385.88494873046875 222.73812866955996,385.88494873046875 580.0834350660443,385.88494873046875 580.0834350660443,-0.88494873046875 "/>
    <polygon stroke="null" id="svg_33" fill="#FFDA44" points="290.0000000074506,80.6352767944336 315.6804199293256,159.66842651367188 398.78170777112246,159.66842651367188 331.55010987073183,208.51351928710938 357.2315979078412,287.54888916015625 290.0000000074506,238.70240783691406 222.7689514234662,287.54888916015625 248.4499054029584,208.51351928710938 181.21884156018496,159.66842651367188 264.3196106031537,159.66842651367188 "/>
    <g stroke="null" transform="matrix(1.1331388012426746,0,0,1.1331388012426746,-0.0007192523693646535,0.0009524693596176803) " id="svg_34"/>
    <g stroke="null" transform="matrix(1.1331388012426746,0,0,1.1331388012426746,-0.0007192523693646535,0.0009524693596176803) " id="svg_35"/>
    <g stroke="null" transform="matrix(1.1331388012426746,0,0,1.1331388012426746,-0.0007192523693646535,0.0009524693596176803) " id="svg_36"/>
    <g stroke="null" transform="matrix(1.1331388012426746,0,0,1.1331388012426746,-0.0007192523693646535,0.0009524693596176803) " id="svg_37"/>
    <g stroke="null" transform="matrix(1.1331388012426746,0,0,1.1331388012426746,-0.0007192523693646535,0.0009524693596176803) " id="svg_38"/>
    <g stroke="null" transform="matrix(1.1331388012426746,0,0,1.1331388012426746,-0.0007192523693646535,0.0009524693596176803) " id="svg_39"/>
    <g stroke="null" transform="matrix(1.1331388012426746,0,0,1.1331388012426746,-0.0007192523693646535,0.0009524693596176803) " id="svg_40"/>
    <g stroke="null" transform="matrix(1.1331388012426746,0,0,1.1331388012426746,-0.0007192523693646535,0.0009524693596176803) " id="svg_41"/>
    <g stroke="null" transform="matrix(1.1331388012426746,0,0,1.1331388012426746,-0.0007192523693646535,0.0009524693596176803) " id="svg_42"/>
    <g stroke="null" transform="matrix(1.1331388012426746,0,0,1.1331388012426746,-0.0007192523693646535,0.0009524693596176803) " id="svg_43"/>
    <g stroke="null" transform="matrix(1.1331388012426746,0,0,1.1331388012426746,-0.0007192523693646535,0.0009524693596176803) " id="svg_44"/>
    <g stroke="null" transform="matrix(1.1331388012426746,0,0,1.1331388012426746,-0.0007192523693646535,0.0009524693596176803) " id="svg_45"/>
    <g stroke="null" transform="matrix(1.1331388012426746,0,0,1.1331388012426746,-0.0007192523693646535,0.0009524693596176803) " id="svg_46"/>
    <g stroke="null" transform="matrix(1.1331388012426746,0,0,1.1331388012426746,-0.0007192523693646535,0.0009524693596176803) " id="svg_47"/>
    <g stroke="null" transform="matrix(1.1331388012426746,0,0,1.1331388012426746,-0.0007192523693646535,0.0009524693596176803) " id="svg_48"/>
  </g>
</svg>
