<svg xmlns="http://www.w3.org/2000/svg" width="185.406" height="179.12" viewBox="0 0 185.406 179.12">
  <g id="Group_662" data-name="Group 662" transform="translate(-868.781 -2881.224)">
    <g id="Group_661" data-name="Group 661" transform="translate(670.919 2766.315)">
      <g id="Group_644" data-name="Group 644" transform="translate(263.928 115.906)">
        <g id="Group_643" data-name="Group 643" transform="translate(0 0)">
          <rect id="Rectangle_243" data-name="Rectangle 243" width="2.685" height="77.871" fill="#00489a"/>
        </g>
      </g>
      <g id="Group_646" data-name="Group 646" transform="translate(279.502 115.906)">
        <g id="Group_645" data-name="Group 645" transform="translate(0 0)">
          <rect id="Rectangle_244" data-name="Rectangle 244" width="2.685" height="77.871" fill="#00489a"/>
        </g>
      </g>
      <g id="Group_648" data-name="Group 648" transform="translate(295.076 115.906)">
        <g id="Group_647" data-name="Group 647" transform="translate(0 0)">
          <rect id="Rectangle_245" data-name="Rectangle 245" width="2.685" height="77.871" fill="#00489a"/>
        </g>
      </g>
      <g id="Group_650" data-name="Group 650" transform="translate(310.65 115.906)">
        <g id="Group_649" data-name="Group 649" transform="translate(0 0)">
          <rect id="Rectangle_246" data-name="Rectangle 246" width="2.685" height="77.871" fill="#00489a"/>
        </g>
      </g>
      <g id="Group_652" data-name="Group 652" transform="translate(249.696 176.861)">
        <g id="Group_651" data-name="Group 651" transform="translate(0)">
          <rect id="Rectangle_247" data-name="Rectangle 247" width="77.871" height="2.685" fill="#00489a"/>
        </g>
      </g>
      <g id="Group_654" data-name="Group 654" transform="translate(249.696 161.287)">
        <g id="Group_653" data-name="Group 653" transform="translate(0 0)">
          <rect id="Rectangle_248" data-name="Rectangle 248" width="77.871" height="2.685" fill="#00489a"/>
        </g>
      </g>
      <g id="Group_656" data-name="Group 656" transform="translate(249.696 145.713)">
        <g id="Group_655" data-name="Group 655" transform="translate(0 0)">
          <rect id="Rectangle_249" data-name="Rectangle 249" width="77.871" height="2.685" fill="#00489a"/>
        </g>
      </g>
      <g id="Group_658" data-name="Group 658" transform="translate(249.696 130.138)">
        <g id="Group_657" data-name="Group 657" transform="translate(0)">
          <rect id="Rectangle_250" data-name="Rectangle 250" width="77.871" height="2.685" fill="#00489a"/>
        </g>
      </g>
      <g id="Group_659" data-name="Group 659" transform="translate(249.621 206.612)">
        <path id="Path_8795" data-name="Path 8795" d="M252.606,713.542a37.722,37.722,0,0,1,6.5-.5c2.982,0,5.068.316,6.792,1.451a5.257,5.257,0,0,1,2.549,4.626,5.456,5.456,0,0,1-3.8,5.146v.1a5.9,5.9,0,0,1,4.62,5.838,6.375,6.375,0,0,1-2.276,4.984c-1.662,1.458-4.422,2.257-8.973,2.257a38.313,38.313,0,0,1-5.407-.329Zm5.16,9.288H259.3c2.521,0,3.954-1.261,3.954-3.1,0-1.8-1.217-2.887-3.505-2.887a8.794,8.794,0,0,0-1.982.162Zm0,10.632a10.392,10.392,0,0,0,1.77.094c2.3,0,4.28-1.019,4.28-3.518,0-2.406-2-3.453-4.448-3.457h-1.6Z" transform="translate(-252.606 -713.041)" fill="#00489a"/>
        <path id="Path_8796" data-name="Path 8796" d="M399.6,729.166c-.115-2.727-.237-6.072-.212-9.312h-.1c-.665,2.923-1.564,6.2-2.33,8.742l-2.684,9.123h-3.946l-2.409-9.024c-.681-2.562-1.43-5.844-1.956-8.841h-.079c-.1,3.072-.249,6.574-.387,9.38l-.436,8.878h-4.717l1.593-24.008h6.544l2.214,8.223c.731,2.84,1.431,5.747,1.935,8.532h.1c.569-2.745,1.3-5.774,2.058-8.557l2.353-8.2h6.45l1.34,24.008h-4.948Z" transform="translate(-360.761 -713.941)" fill="#00489a"/>
        <path id="Path_8797" data-name="Path 8797" d="M568.188,797.2v3.53h-8.646V797.2Z" transform="translate(-512.484 -784.294)" fill="#00489a"/>
      </g>
      <path id="Path_8798" data-name="Path 8798" d="M358.449,154.975a72.014,72.014,0,0,0-72.013,72.014v.066h22.436v-.066a49.577,49.577,0,0,1,49.577-49.577h.1V154.975Z" transform="translate(-31.628 -33.923)" fill="#fff"/>
      <path id="Path_8799" data-name="Path 8799" d="M306.6,173.156a52.274,52.274,0,0,0-11.239,16.67,56.182,56.182,0,0,0-4.116,20.481h5.732v-.066a46.76,46.76,0,0,1,46.708-46.706h.1V157.8a57.165,57.165,0,0,0-20.517,4.115A52.273,52.273,0,0,0,306.6,173.156Zm35.172-40.222a74.821,74.821,0,0,0-74.882,74.883v.066h5.742c.4-37.5,31.762-68.741,69.242-69.206v-5.744Z" transform="translate(-15.078 -15.261)" fill="#00489a"/>
      <path id="Path_8800" data-name="Path 8800" d="M249.081,114.909v80.4h80.4v-80.4ZM326.8,192.622H251.767V117.595H326.8Z" fill="#00489a"/>
      <g id="Group_660" data-name="Group 660" transform="translate(309.598 206.855)">
        <path id="Path_8801" data-name="Path 8801" d="M651.437,729.228l-2.613,2.814v6.968H643.8V714.622h5.025v11.055l2.211-3.032,6.214-8.023h6.181l-8.66,10.837,8.911,13.551H657.7Z" transform="translate(-643.799 -714.622)" fill="#00489a"/>
      </g>
    </g>
    <path id="Path_8802" data-name="Path 8802" d="M6.219-11.3v6.844q0,2.3,1.375,2.531a25.956,25.956,0,0,0,4.672.328q3.219,0,7.094-.391V.422q-4.25.219-7.7.219A24.636,24.636,0,0,1,6.078.188q-2.3-.5-2.3-3.906v-20.8H6.219v10.984a37.18,37.18,0,0,0,10.359-6.781l1.641,1.938A44.061,44.061,0,0,1,6.219-11.3Zm8.672-15,1.625-.641a42.8,42.8,0,0,1,2.375,5.406l-1.734.7A33.109,33.109,0,0,0,14.891-26.3ZM18.5-27.359l1.594-.578a26.437,26.437,0,0,1,2.281,5.25l-1.672.672A30.829,30.829,0,0,0,18.5-27.359Zm19.75,24.7q5.2-3.531,8.313-11L48.2-11.516A29.118,29.118,0,0,1,37.188,1.031L35.813.313V-24.578H38.25Zm-6.812-21.7q0,9.094-.312,13.125a24.554,24.554,0,0,1-.906,5.375,14.977,14.977,0,0,1-4.672,6.891L23.688-.422a11.864,11.864,0,0,0,4.359-6.359,30.422,30.422,0,0,0,.8-6.578q.156-3.547.156-11Zm29.25,13.125a63.456,63.456,0,0,0-7.3-6.422l1.563-1.484a80.975,80.975,0,0,1,6.813,5.766,45.254,45.254,0,0,0,3.406-11.141L67.656-24a51.288,51.288,0,0,1-4.062,12.422,50.163,50.163,0,0,1,5.8,7.219L67.406-2.719a50.48,50.48,0,0,0-5-6.656A29.074,29.074,0,0,1,51.719,1.375L50.125-.219A27.422,27.422,0,0,0,60.688-11.234ZM75.234-22.781a54.833,54.833,0,0,1,7.516,4.766l-1.594,2.109A46.529,46.529,0,0,0,73.8-20.891Zm16.125,1.594,2.406,1.156A26.082,26.082,0,0,1,87.813-6.766,25.455,25.455,0,0,1,75.047.609L73.953-1.562Q88.969-5.266,91.359-21.187Zm33.734-.8a.221.221,0,0,1-.25.25l-4.391-.062h-4.594v3.172H118l4.859-.062q.3,0,.3.25l-.078,2.422v1.969l.078,2.422q0,.25-.3.25L118-11.437H101.516q-.094,2.578-.375,4.734a22.859,22.859,0,0,1-2.625,8.25q-.187.391-.328.391-.094,0-.437-.359A3.753,3.753,0,0,0,96.531.688a18.553,18.553,0,0,0,2.813-8.094,80.216,80.216,0,0,0,.453-9.719l-.062-6.141a.221.221,0,0,1,.25-.25l4.453.063h6.484v-.891a10.2,10.2,0,0,0-.219-2.437,13.442,13.442,0,0,1,2.047.156q.391.047.391.266a2.064,2.064,0,0,1-.2.578,5.547,5.547,0,0,0-.125,1.469v.859h7.641l4.391-.062a.221.221,0,0,1,.25.25ZM107.25-13.062V-17h-5.594q0,1.5-.062,3.938Zm14.047,0V-17h-5.437v3.938Zm-7.2,0V-17h-5.078v3.938Zm-6.844-5.562V-21.8h-5.594v3.172Zm6.844,0V-21.8h-5.078v3.172ZM125.172-2.047A4.192,4.192,0,0,1,123.891.8q-1,.8-4.484.8a14.72,14.72,0,0,1-3.812-.281q-1.172-.422-1.172-2.2v-6.25a19.108,19.108,0,0,0-.2-3.234q1.2.063,1.922.172.422.047.422.281a1.363,1.363,0,0,1-.2.578,9.827,9.827,0,0,0-.125,2.2v1.156a27.1,27.1,0,0,0,5.156-2.3,4.323,4.323,0,0,0,1.063-.937A11.482,11.482,0,0,1,123.75-8a.563.563,0,0,1,.2.422q0,.2-.328.25a2.945,2.945,0,0,0-.8.219,37.147,37.147,0,0,1-6.594,2.75V-1.5a1.883,1.883,0,0,0,.156.938.876.876,0,0,0,.453.3,13.713,13.713,0,0,0,2.75.156q2.453,0,3.078-.578.719-.609.8-2.8a4.175,4.175,0,0,0,1.25.672q.5.172.5.391A3.367,3.367,0,0,1,125.172-2.047ZM112.844-3.156a5.909,5.909,0,0,0-.125,1.109,1.1,1.1,0,0,1-.109.625,1.576,1.576,0,0,1-.5.234,76.681,76.681,0,0,1-8.094,2.469,6.9,6.9,0,0,0-1.609.516.7.7,0,0,1-.406.188q-.172,0-.328-.375a10.826,10.826,0,0,1-.437-1.734A16.458,16.458,0,0,0,103.828-.5a6.143,6.143,0,0,0,.766-.172V-7.578a14.737,14.737,0,0,0-.2-2.781,15.742,15.742,0,0,1,1.984.2q.359.047.359.25a1.656,1.656,0,0,1-.156.578,5.758,5.758,0,0,0-.156,1.75v.391h3.516l2.375-.062q.219,0,.219.25v1.219q0,.25-.219.25l-2.375-.062h-3.516v4.516A53.208,53.208,0,0,0,112.844-3.156ZM154.3-10.875a.221.221,0,0,1-.25.25l-3.969-.062h-5.859l-4.016.063a.221.221,0,0,1-.25-.25l.063-3.5v-6.641l-.062-3.484q0-.266.25-.266l4.016.063h5.859l3.969-.062q.25,0,.25.266l-.062,3.484v6.641Zm-1.984-1.547V-17H141.906v4.578Zm0-6.234v-4.312H141.906v4.313Zm5.047,15.141Q156.984-.2,155.953.641q-1.328.984-5.312.984a11.943,11.943,0,0,1-4.312-.453,2.159,2.159,0,0,1-1-2.125V-5.891a23.037,23.037,0,0,0-.187-3.328q1.344.109,2.078.234.391.047.391.281a1.482,1.482,0,0,1-.2.547,8.192,8.192,0,0,0-.156,2.141v4.391a1.232,1.232,0,0,0,.828,1.3,14.927,14.927,0,0,0,2.656.125q3.172,0,4-.734.75-.719.875-4.016a5.3,5.3,0,0,0,1.266.672q.516.172.516.438Q157.391-3.766,157.359-3.516ZM135.078-24.984q0,.047-.125.563a15.876,15.876,0,0,0-.187,3.3v7.3l.063,3.844a.221.221,0,0,1-.25.25H133a.221.221,0,0,1-.25-.25l.063-3.844v-7.234a32.008,32.008,0,0,0-.219-4.375,20.749,20.749,0,0,1,2.141.188Q135.078-25.2,135.078-24.984Zm5.969,16.344a1.565,1.565,0,0,1-.187.547,10.841,10.841,0,0,0-.3,1.8,8.4,8.4,0,0,1-2.7,5.563,15.072,15.072,0,0,1-5.969,2.984,1.518,1.518,0,0,1-.453.094q-.2,0-.562-.547A4.376,4.376,0,0,0,129.844.766a15.048,15.048,0,0,0,6.609-2.812,6.326,6.326,0,0,0,2.172-4.219,13.876,13.876,0,0,0,.078-1.469,13.241,13.241,0,0,0-.094-1.547q1.2.156,1.859.3Q141.047-8.875,141.047-8.641Zm48.141-2.109a.249.249,0,0,1-.281.281l-4.516-.062H167.953V-8.25h15.516l4.5-.062q.3,0,.3.281-.063.359-.109,1.031-.063.766-.078.922Q187.531-.7,186.563.672a3.148,3.148,0,0,1-2.656,1.313q-1.375,0-2.328-.062-.391-.031-.469-.125a1.732,1.732,0,0,1-.141-.484,3.614,3.614,0,0,0-.484-1.406,18.934,18.934,0,0,0,2.953.25A1.624,1.624,0,0,0,185-.578q.766-1.219,1.188-6.2H172.5v4.641h5.75V-3.906a9.477,9.477,0,0,0-.156-1.812q1.266.094,2.016.219.328.047.328.25a2.215,2.215,0,0,1-.172.484,2.857,2.857,0,0,0-.156,1.063v1.688l.063,1.156q0,.281-.266.281-.859-.062-4.437-.062H164.875V.734a.221.221,0,0,1-.25.25H163.25q-.266,0-.266-.25l.063-1.719V-3.578a8.935,8.935,0,0,0-.187-2.047,16.886,16.886,0,0,1,2.016.188q.328.047.328.25a.883.883,0,0,1-.172.453,2.31,2.31,0,0,0-.125.922v1.672h5.734V-6.781l-4.391.063a.221.221,0,0,1-.25-.25l.063-3.875v-8.516L166-23.172a.221.221,0,0,1,.25-.25l4.359.063h1.156l.922-1.859a5.454,5.454,0,0,0,.484-1.719,15.486,15.486,0,0,1,2,.438q.328.109.328.359,0,.156-.3.375a1.664,1.664,0,0,0-.437.578q-.719,1.453-.922,1.828h5.109l4.344-.062q.266,0,.266.25l-.062,2.656v3.422l.063,2.625q0,.281-.266.281l-4.344-.062h-11v2.188h16.438l4.516-.062q.281,0,.281.25Zm-7.578-5v-2.391H167.953v2.391Zm0-3.828v-2.281H167.953v2.281Z" transform="translate(865 3058)" fill="#222"/>
  </g>
</svg>
