<svg xmlns="http://www.w3.org/2000/svg" width="83.913" height="83.913" viewBox="0 0 83.913 83.913"><g transform="translate(-370.832 -185.837)"><path d="M405.744,269.75a2.065,2.065,0,0,1-2.06-1.861l-.875-8.567a3.172,3.172,0,0,0-1.966-2.6l-.064-.026a3.259,3.259,0,0,0-1.255-.251,3.134,3.134,0,0,0-1.975.7l-6.676,5.44a2.078,2.078,0,0,1-1.307.465,2.057,2.057,0,0,1-1.464-.607l-9.962-9.962a2.065,2.065,0,0,1-.142-2.772l5.439-6.677a3.175,3.175,0,0,0,.444-3.232l-.026-.061a3.17,3.17,0,0,0-2.6-1.966l-8.568-.875a2.064,2.064,0,0,1-1.86-2.06V220.749a2.064,2.064,0,0,1,1.86-2.06l8.567-.875a3.17,3.17,0,0,0,2.6-1.966l.026-.063a3.173,3.173,0,0,0-.445-3.23L378,205.879a2.065,2.065,0,0,1,.141-2.772l9.962-9.962a2.071,2.071,0,0,1,2.772-.141l6.676,5.439a3.133,3.133,0,0,0,1.975.7,3.263,3.263,0,0,0,1.257-.252l.054-.022a3.177,3.177,0,0,0,1.973-2.6l.875-8.567a2.064,2.064,0,0,1,2.06-1.86h14.089a2.065,2.065,0,0,1,2.06,1.86l.875,8.567a3.172,3.172,0,0,0,1.966,2.6l.06.025a3.266,3.266,0,0,0,1.259.253,3.133,3.133,0,0,0,1.975-.7L434.7,193a2.07,2.07,0,0,1,2.772.141l9.962,9.962a2.065,2.065,0,0,1,.141,2.772l-6.663,8.178.128.269a31.316,31.316,0,0,1,1.248,3.011l.1.281,10.493,1.072a2.063,2.063,0,0,1,1.86,2.06v14.089a2.064,2.064,0,0,1-1.86,2.06l-8.567.875a3.172,3.172,0,0,0-2.6,1.966l-.024.057a3.18,3.18,0,0,0,.442,3.236l5.438,6.677a2.065,2.065,0,0,1-.141,2.772l-9.963,9.962a2.056,2.056,0,0,1-1.464.607h0a2.077,2.077,0,0,1-1.308-.465l-6.676-5.439a3.133,3.133,0,0,0-1.975-.7,3.257,3.257,0,0,0-1.258.253l-.056.022a3.175,3.175,0,0,0-1.972,2.6l-.875,8.567a2.065,2.065,0,0,1-2.06,1.86Zm-6.219-17.444a7.384,7.384,0,0,1,2.846.57l.053.023a7.3,7.3,0,0,1,4.506,6l.685,6.707h10.349l.685-6.707a7.3,7.3,0,0,1,4.505-6l.058-.024a7.371,7.371,0,0,1,2.841-.568,7.288,7.288,0,0,1,4.591,1.628l5.226,4.258,7.318-7.318-4.258-5.226a7.312,7.312,0,0,1-1.057-7.437l.023-.055a7.306,7.306,0,0,1,6-4.5l6.706-.685V222.619l-9.985-1.02a2.064,2.064,0,0,1-1.777-1.476,26.987,26.987,0,0,0-2.207-5.328,2.062,2.062,0,0,1,.212-2.3l6.34-7.782-7.318-7.318-5.226,4.258a7.286,7.286,0,0,1-4.59,1.628,7.385,7.385,0,0,1-2.846-.57l-.054-.023a7.3,7.3,0,0,1-4.5-6l-.685-6.706H407.614l-.685,6.707a7.305,7.305,0,0,1-4.505,6l-.055.023a7.385,7.385,0,0,1-2.845.569,7.287,7.287,0,0,1-4.59-1.627l-5.226-4.258-7.318,7.318,4.258,5.227a7.31,7.31,0,0,1,1.057,7.436l-.022.051a7.306,7.306,0,0,1-6,4.507l-6.706.685v10.349l6.707.685a7.308,7.308,0,0,1,6,4.506l.022.053a7.309,7.309,0,0,1-1.057,7.436l-4.258,5.226,7.318,7.318,5.226-4.258A7.285,7.285,0,0,1,399.524,252.307Z"/><path d="M575.222,411.8a2.058,2.058,0,0,1-1.464-.606l-5.152-5.152a2.071,2.071,0,0,1,2.929-2.928l3.688,3.688,7.676-7.675a2.07,2.07,0,0,1,2.927,2.928l-9.139,9.139A2.057,2.057,0,0,1,575.222,411.8Z" transform="translate(-164.426 -177.365)"/><path d="M523.9,358.738A19.833,19.833,0,1,1,543.733,338.9,19.855,19.855,0,0,1,523.9,358.738Zm0-35.525A15.692,15.692,0,1,0,539.592,338.9,15.71,15.71,0,0,0,523.9,323.213Z" transform="translate(-111.111 -111.111)"/></g></svg>