<svg xmlns="http://www.w3.org/2000/svg" width="430.688" height="430.688" viewBox="0 0 430.688 430.688"><defs><style>.a{opacity:0.05;}</style></defs><g class="a"><path d="M-296.7,377.425c-15.739,0-32.14-20.779-36.791-27.147l-4.668-6.487-5.9,3.78a62.126,62.126,0,0,1-33.556,9.841,10.014,10.014,0,0,1-10-10,10.014,10.014,0,0,1,10-10,42.425,42.425,0,0,0,25.842-8.857l4.172-3.231-1.7-5a88.115,88.115,0,0,1-2.6-9.309l-1.28-5.807h-25.306a10.014,10.014,0,0,1-10-10,10.014,10.014,0,0,1,10-10h24.5l.681-6.646a49.089,49.089,0,0,1,2.04-10.068l1.693-5.3-4.624-3.1A41.924,41.924,0,0,0-377.623,253a10.014,10.014,0,0,1-10-10,10.014,10.014,0,0,1,10-10,61.539,61.539,0,0,1,36.546,11.866l3.972,2.9,4.212-2.539a42.532,42.532,0,0,1,14.213-5.393l-1.337-14.465,7.19,7.19c0-12.5,7.384-23.054,16.123-23.054s16.123,10.558,16.123,23.054l7.19-7.19-1.336,14.465a42.545,42.545,0,0,1,14.213,5.393l4.212,2.539,3.971-2.9A61.537,61.537,0,0,1-215.786,233a10.014,10.014,0,0,1,10,10,10.014,10.014,0,0,1-10,10,41.916,41.916,0,0,0-23.422,7.089l-4.622,3.1,1.691,5.3a49.293,49.293,0,0,1,2.014,10.071l.682,6.645h24.526a10.014,10.014,0,0,1,10,10,10.013,10.013,0,0,1-10,10h-25.243l-1.258,5.84a86.654,86.654,0,0,1-2.59,9.37l-1.688,5.009,4.192,3.222a42.455,42.455,0,0,0,25.717,8.759,10.014,10.014,0,0,1,10,10,10.014,10.014,0,0,1-10,10,62.15,62.15,0,0,1-33.458-9.779l-5.9-3.761-4.085,5.682c-.242.336-.48.664-.713.98C-264.582,356.836-280.965,377.425-296.7,377.425Zm-36.977-82.356c.2,12.362,5.445,27.337,14.115,40.233,6.855,10.2,14.219,17.067,18.826,20.1l4.042,2.659,4.057-2.638c4.6-2.992,11.959-9.785,18.8-19.873,8.573-12.646,13.95-28.143,14.116-40.616.012-.179.018-.362.019-.548.056-8.419-.019-15.227-1.494-19.832a22.414,22.414,0,0,0-21.529-15.459H-310.68a22.41,22.41,0,0,0-21.529,15.46c-1.477,4.61-1.551,11.415-1.495,19.832C-333.7,294.551-333.7,294.784-333.681,295.069Z" transform="translate(512.919 -79.86)"/><path d="M-316.151,491.193a10.014,10.014,0,0,1-10-10V462.325l-6.749-.6A183.973,183.973,0,0,1-448.12,407.817,183.977,183.977,0,0,1-502.033,292.6l-.6-6.748h-18.864a10.014,10.014,0,0,1-10-10,10.014,10.014,0,0,1,10-10h18.864l.6-6.749A183.986,183.986,0,0,1-448.121,143.88,183.982,183.982,0,0,1-332.9,89.967l6.748-.6V70.507a10.014,10.014,0,0,1,10-10,10.014,10.014,0,0,1,10,10V89.371l6.748.6A183.97,183.97,0,0,1-184.185,143.88,183.986,183.986,0,0,1-130.27,259.1l.6,6.749h18.864a10.014,10.014,0,0,1,10,10,10.014,10.014,0,0,1-10,10h-18.86l-.6,6.74a186.964,186.964,0,0,1-27.256,81.637,9.958,9.958,0,0,1-8.513,4.725,9.971,9.971,0,0,1-5.263-1.508,10.016,10.016,0,0,1-3.216-13.776,167.022,167.022,0,0,0,23.993-69.613l.9-8.2h-23.826a10.014,10.014,0,0,1-10-10,10.014,10.014,0,0,1,10-10h23.829l-.9-8.2c-8.409-77.013-70.41-139.013-147.422-147.423l-8.2-.9v23.829a10.014,10.014,0,0,1-10,10,10.014,10.014,0,0,1-10-10V109.324l-8.2.9c-77.013,8.41-139.013,70.411-147.423,147.423l-.9,8.2h23.828a10.014,10.014,0,0,1,10,10,10.014,10.014,0,0,1-10,10h-23.828l.9,8.2c8.41,77.013,70.41,139.014,147.423,147.423l8.2.9V418.543a10.014,10.014,0,0,1,10-10,10.014,10.014,0,0,1,10,10v23.816l8.205-.9a165.037,165.037,0,0,0,65.509-21.511,9.984,9.984,0,0,1,5.016-1.362,10.053,10.053,0,0,1,8.661,4.973,10.014,10.014,0,0,1-3.611,13.677,187.388,187.388,0,0,1-77.043,24.484l-6.737.6V481.19A10.014,10.014,0,0,1-316.151,491.193Z" transform="translate(531.496 -60.504)"/></g></svg>