<svg xmlns="http://www.w3.org/2000/svg" width="83.256" height="83.256" viewBox="0 0 83.256 83.256"><g transform="translate(0)"><path d="M-370.752,241.965c-3.043,0-6.213-4.017-7.112-5.248l-.9-1.254-1.141.731a12.009,12.009,0,0,1-6.487,1.9,1.936,1.936,0,0,1-1.934-1.934,1.936,1.936,0,0,1,1.934-1.934,8.2,8.2,0,0,0,5-1.712l.807-.625-.328-.966a17.023,17.023,0,0,1-.5-1.8l-.247-1.123h-4.892a1.936,1.936,0,0,1-1.934-1.934,1.936,1.936,0,0,1,1.934-1.934h4.736l.132-1.285a9.489,9.489,0,0,1,.394-1.946l.327-1.025-.894-.6a8.1,8.1,0,0,0-4.528-1.37,1.936,1.936,0,0,1-1.934-1.934,1.936,1.936,0,0,1,1.934-1.934,11.9,11.9,0,0,1,7.065,2.294l.768.561.814-.491A8.222,8.222,0,0,1-375,215.367l-.258-2.8,1.39,1.39c0-2.416,1.427-4.457,3.117-4.457s3.117,2.041,3.117,4.457l1.39-1.39-.258,2.8a8.224,8.224,0,0,1,2.747,1.042l.814.491.768-.561a11.9,11.9,0,0,1,7.065-2.294,1.936,1.936,0,0,1,1.934,1.934,1.936,1.936,0,0,1-1.934,1.934,8.1,8.1,0,0,0-4.528,1.37l-.893.6.327,1.024a9.532,9.532,0,0,1,.389,1.947l.132,1.285h4.741a1.936,1.936,0,0,1,1.934,1.934A1.936,1.936,0,0,1-354.941,228h-4.88l-.243,1.129a16.745,16.745,0,0,1-.5,1.811l-.326.968.81.623a8.207,8.207,0,0,0,4.971,1.693,1.936,1.936,0,0,1,1.934,1.934,1.936,1.936,0,0,1-1.934,1.934,12.014,12.014,0,0,1-6.468-1.89l-1.141-.727-.79,1.1-.138.189C-364.542,237.985-367.709,241.965-370.752,241.965Zm-7.148-15.92a15.224,15.224,0,0,0,2.729,7.777,14.611,14.611,0,0,0,3.639,3.885l.781.514.784-.51a14.457,14.457,0,0,0,3.634-3.842,15.359,15.359,0,0,0,2.729-7.851c0-.035,0-.07,0-.106a13.858,13.858,0,0,0-.289-3.834,4.333,4.333,0,0,0-4.162-2.988h-5.4a4.332,4.332,0,0,0-4.162,2.989,13.841,13.841,0,0,0-.289,3.834C-377.9,225.944-377.9,225.989-377.9,226.044Z" transform="translate(412.548 -184.443)"/><path d="M-489.868,143.76a1.936,1.936,0,0,1-1.934-1.934V138.18l-1.3-.115a35.564,35.564,0,0,1-22.273-10.422A35.564,35.564,0,0,1-525.8,105.37l-.115-1.3h-3.647a1.936,1.936,0,0,1-1.934-1.934,1.936,1.936,0,0,1,1.934-1.934h3.647l.115-1.3a35.566,35.566,0,0,1,10.422-22.273A35.565,35.565,0,0,1-493.106,66.2l1.3-.115V62.438a1.936,1.936,0,0,1,1.934-1.934,1.936,1.936,0,0,1,1.934,1.934v3.647l1.3.115a35.563,35.563,0,0,1,22.272,10.422,35.566,35.566,0,0,1,10.422,22.273l.115,1.3h3.647a1.936,1.936,0,0,1,1.934,1.933,1.936,1.936,0,0,1-1.934,1.934h-3.646l-.116,1.3a36.142,36.142,0,0,1-5.269,15.781,1.925,1.925,0,0,1-1.646.913,1.928,1.928,0,0,1-1.017-.291,1.936,1.936,0,0,1-.622-2.663,32.286,32.286,0,0,0,4.638-13.457l.173-1.586h-4.606a1.936,1.936,0,0,1-1.934-1.934,1.936,1.936,0,0,1,1.934-1.934h4.606l-.173-1.586a32.386,32.386,0,0,0-28.5-28.5l-1.586-.173v4.606a1.936,1.936,0,0,1-1.934,1.934,1.936,1.936,0,0,1-1.934-1.934V69.941l-1.586.173a32.386,32.386,0,0,0-28.5,28.5l-.173,1.586h4.606a1.936,1.936,0,0,1,1.934,1.934,1.936,1.936,0,0,1-1.934,1.934h-4.606l.173,1.586a32.385,32.385,0,0,0,28.5,28.5l1.586.173v-4.606a1.936,1.936,0,0,1,1.934-1.934,1.936,1.936,0,0,1,1.934,1.934v4.6l1.586-.174a31.9,31.9,0,0,0,12.663-4.158,1.93,1.93,0,0,1,.97-.263,1.943,1.943,0,0,1,1.674.961,1.936,1.936,0,0,1-.7,2.644,36.224,36.224,0,0,1-14.893,4.733l-1.3.117v3.646A1.936,1.936,0,0,1-489.868,143.76Z" transform="translate(531.496 -60.504)"/></g></svg>