<svg xmlns="http://www.w3.org/2000/svg" width="26.398" height="26.398" viewBox="0 0 26.398 26.398"><defs><style>.a{fill:#fff;}</style></defs><path class="a" d="M22.532,3.866A13.2,13.2,0,0,0,3.866,22.532,13.2,13.2,0,0,0,22.532,3.866ZM10.7,1.818A16.89,16.89,0,0,0,9.3,3.36,16.049,16.049,0,0,0,7.239,6.674H3.55A11.684,11.684,0,0,1,10.7,1.818Zm-8.031,6.4H6.626a15.519,15.519,0,0,0-.781,4.205H1.573A11.566,11.566,0,0,1,2.665,8.221ZM1.573,13.973H5.845a15.517,15.517,0,0,0,.781,4.205H2.665A11.566,11.566,0,0,1,1.573,13.973ZM3.55,19.724h3.69A16.05,16.05,0,0,0,9.3,23.039a16.875,16.875,0,0,0,1.4,1.541A11.684,11.684,0,0,1,3.55,19.724Zm8.876,4.344a15.2,15.2,0,0,1-1.923-2,14.733,14.733,0,0,1-1.545-2.347h3.467Zm0-5.891H8.261a13.84,13.84,0,0,1-.867-4.205h5.032Zm0-5.752H7.393a13.839,13.839,0,0,1,.868-4.205h4.164Zm0-5.752H8.958a14.727,14.727,0,0,1,1.508-2.3,15.2,15.2,0,0,1,1.96-2.041Zm12.4,5.752H20.554a15.517,15.517,0,0,0-.781-4.205h3.961A11.565,11.565,0,0,1,24.825,12.426ZM22.849,6.674h-3.69A16.05,16.05,0,0,0,17.1,3.36a16.875,16.875,0,0,0-1.4-1.541A11.683,11.683,0,0,1,22.849,6.674ZM13.973,2.33a15.2,15.2,0,0,1,1.923,2A14.736,14.736,0,0,1,17.44,6.674H13.973Zm0,5.891h4.165a13.838,13.838,0,0,1,.867,4.205H13.973Zm0,5.752H19a13.839,13.839,0,0,1-.868,4.205H13.973Zm0,10.093V19.724H17.44a14.724,14.724,0,0,1-1.508,2.3A15.2,15.2,0,0,1,13.973,24.066Zm1.73.514a16.89,16.89,0,0,0,1.4-1.541,16.049,16.049,0,0,0,2.057-3.314h3.69A11.684,11.684,0,0,1,15.7,24.58Zm8.031-6.4H19.772a15.519,15.519,0,0,0,.781-4.205h4.272A11.565,11.565,0,0,1,23.733,18.178Z"/></svg>