<svg xmlns="http://www.w3.org/2000/svg" width="70.586" height="83.564" viewBox="0 0 70.586 83.564"><path d="M43.9,352.654a2.064,2.064,0,0,1-2.062-2.062v-2.94a25.963,25.963,0,0,1,25.934-25.934H86.488a25.963,25.963,0,0,1,25.934,25.934v2.94a2.064,2.064,0,0,1-2.062,2.062ZM79.19,348.53H108.3v-.878a21.835,21.835,0,0,0-21.811-21.811h-7.3ZM67.769,325.841a21.835,21.835,0,0,0-21.811,21.811v.878H75.066V325.841Z" transform="translate(-41.835 -269.09)"/><path d="M303.132,393.32a2.054,2.054,0,0,1-1.425-.571l-5.059-4.834a2.072,2.072,0,0,1-.637-1.491v-6.746a2.064,2.064,0,0,1,2.061-2.062h10.119a2.064,2.064,0,0,1,2.062,2.062v6.746a2.075,2.075,0,0,1-.638,1.491l-5.059,4.833A2.052,2.052,0,0,1,303.132,393.32Zm-3-7.777,3,2.864,3-2.864v-3.8h-6Z" transform="translate(-254.062 -315.763)"/><path d="M144.863,50.38A17.335,17.335,0,0,1,127.9,29.493l.062-.294-.242-.178a19.179,19.179,0,0,1-2-1.69l-.048-.053c-.03-.03-.053-.056-.077-.083l-.024-.026a1.758,1.758,0,0,1-.4-.75l-1.52-6.444c-.071-.3-.146-.607-.221-.911-.146-.591-.3-1.2-.419-1.8a2.59,2.59,0,0,1,.522-2.19A29.318,29.318,0,0,1,135.067,5.018a23.106,23.106,0,0,1,21.7,1.118,29.608,29.608,0,0,1,6.689,5.506,24.25,24.25,0,0,1,2.989,3.827c.626,1.059.123,2.816-.281,4.227-.107.375-.209.73-.286,1.056-.1.412-.221.94-.354,1.509-.385,1.64-.965,4.117-1.039,4.348,0,0-.015.038-.024.056a1.807,1.807,0,0,1-.5.7l-.019.018A19.233,19.233,0,0,1,162,29.02l-.242.178.062.294A17.336,17.336,0,0,1,144.863,50.38ZM131.7,31.983c-.032.386-.047.736-.047,1.069a13.205,13.205,0,0,0,26.41,0c0-.324-.015-.674-.047-1.068l-.051-.637-.592.241a37.476,37.476,0,0,1-25.032,0l-.591-.24Zm13.158-9.891c-5.77,0-10.449,1.133-13.906,3.369l-.608.393.608.393c3.457,2.235,8.136,3.369,13.906,3.369s10.449-1.133,13.906-3.369l.608-.393-.608-.393C155.311,23.225,150.633,22.092,144.863,22.092Zm-.012-15.2a20.186,20.186,0,0,0-13.2,4.984,21.4,21.4,0,0,0-4.356,4.993l-.093.161.043.181s.682,2.888,1.022,4.333l.15.636.554-.347c4.1-2.567,9.445-3.869,15.893-3.869s11.8,1.3,15.894,3.869l.554.347,1.214-5.15-.093-.161a21.489,21.489,0,0,0-4.368-4.993A20.232,20.232,0,0,0,144.851,6.9Z" transform="translate(-109.57 -2.835)"/><path d="M245.241,54.24a2.094,2.094,0,0,1-2.062-2.083,1.859,1.859,0,0,1,.548-1.364,2.152,2.152,0,0,1,1.514-.677A2.093,2.093,0,0,1,247.3,52.2a1.857,1.857,0,0,1-.548,1.364A2.153,2.153,0,0,1,245.241,54.24Z" transform="translate(-209.948 -42.313)"/></svg>