<svg xmlns="http://www.w3.org/2000/svg" width="326.678" height="386.738" viewBox="0 0 326.678 386.738"><defs><style>.a{opacity:0.05;}</style></defs><g class="a"><path d="M51.378,464.891a9.553,9.553,0,0,1-9.543-9.542V441.741A120.16,120.16,0,0,1,161.861,321.718H248.49A120.157,120.157,0,0,1,368.513,441.741v13.608a9.553,9.553,0,0,1-9.542,9.542Zm163.338-19.085H349.431v-4.066A101.056,101.056,0,0,0,248.49,340.8H214.716ZM161.861,340.8A101.055,101.055,0,0,0,60.92,441.741v4.066H195.631l0-2.165V340.8Z" transform="translate(-41.835 -78.153)"/><path d="M328.965,450.293a9.505,9.505,0,0,1-6.593-2.643L298.96,425.278a9.59,9.59,0,0,1-2.949-6.9V387.158a9.551,9.551,0,0,1,9.539-9.542h46.83a9.554,9.554,0,0,1,9.543,9.542v31.221a9.6,9.6,0,0,1-2.951,6.9l-23.414,22.37A9.5,9.5,0,0,1,328.965,450.293ZM315.092,414.3l13.873,13.254L342.838,414.3V396.7H315.092Z" transform="translate(-101.87 -91.356)"/><path d="M224.335,222.878a80.23,80.23,0,0,1-78.495-96.67l.286-1.362-1.12-.825a88.755,88.755,0,0,1-9.235-7.82s-.163-.182-.224-.244c-.138-.139-.247-.26-.354-.383l-.113-.121a8.136,8.136,0,0,1-1.832-3.469L126.21,82.159c-.331-1.405-.678-2.81-1.024-4.215-.676-2.737-1.374-5.567-1.939-8.348-.864-4.237.283-7.019,2.416-10.135C139.754,38.868,158.7,22.345,179,12.936a106.938,106.938,0,0,1,100.446,5.172A137.029,137.029,0,0,1,310.4,43.591c4.988,5.478,10.116,11.416,13.835,17.712,2.9,4.9.571,13.032-1.3,19.564-.5,1.738-.967,3.38-1.323,4.888-.451,1.909-1.023,4.348-1.641,6.983-1.78,7.592-4.467,19.052-4.807,20.124,0,0-.071.175-.11.261a8.361,8.361,0,0,1-2.32,3.238l-.089.082a89.016,89.016,0,0,1-8.98,7.578l-1.119.825.285,1.361a80.231,80.231,0,0,1-78.5,96.671Zm-60.9-85.147c-.146,1.788-.216,3.407-.216,4.949a61.114,61.114,0,0,0,122.227,0c0-1.5-.071-3.118-.215-4.945L285,134.788l-2.74,1.114c-16.254,6.608-35.741,9.959-57.922,9.959s-41.673-3.351-57.926-9.959l-2.734-1.111Zm60.9-45.774c-26.705,0-48.357,5.245-64.357,15.59l-2.812,1.819,2.812,1.818c16,10.345,37.652,15.59,64.357,15.59s48.36-5.245,64.359-15.59l2.812-1.819-2.812-1.818C272.691,97.2,251.038,91.957,224.335,91.957Zm-.054-70.327c-28.206,0-48.792,12.544-61.1,23.067C149.878,56.081,143.3,67.333,143.025,67.807l-.43.745.2.836s3.157,13.366,4.732,20.051l.694,2.944,2.563-1.606c18.965-11.882,43.713-17.906,73.555-17.906s54.592,6.024,73.557,17.906l2.563,1.606,5.62-23.835-.432-.745c-.276-.474-6.881-11.724-20.216-23.107C273.1,34.174,252.486,21.631,224.281,21.631Z" transform="translate(-60.996 -2.835)"/><path d="M252.73,69.2c-5.193,0-9.3-4.144-9.545-9.64a8.606,8.606,0,0,1,2.538-6.311,9.962,9.962,0,0,1,7.007-3.134c5.2,0,9.3,4.144,9.544,9.639a8.6,8.6,0,0,1-2.534,6.311A9.963,9.963,0,0,1,252.73,69.2Z" transform="translate(-89.391 -14.002)"/></g></svg>