<svg xmlns="http://www.w3.org/2000/svg" width="132.244" height="58.837" viewBox="0 0 132.244 58.837"><defs><style>.a{fill:#fff;}.b{fill:#ce001b;}</style></defs><g transform="translate(-186 -83)"><g transform="translate(259.8 103)"><path class="a" d="M187.841,49.629a28.784,28.784,0,0,1,4.952-.382c2.274,0,3.862.241,5.176,1.107a4.005,4.005,0,0,1,1.943,3.525,4.159,4.159,0,0,1-2.9,3.922v.077a4.5,4.5,0,0,1,3.52,4.448,4.862,4.862,0,0,1-1.733,3.8c-1.266,1.11-3.371,1.719-6.84,1.719a29.246,29.246,0,0,1-4.121-.25Zm3.933,7.078h1.167c1.923,0,3.014-.961,3.014-2.36,0-1.375-.928-2.2-2.671-2.2a6.682,6.682,0,0,0-1.511.123Zm0,8.1a7.981,7.981,0,0,0,1.347.072c1.75,0,3.263-.777,3.263-2.682,0-1.833-1.524-2.63-3.389-2.634h-1.22Z" transform="translate(-187.841 -49.247)"/><path class="a" d="M210.634,60.794c-.088-2.079-.182-4.628-.164-7.1H210.4c-.505,2.228-1.191,4.724-1.776,6.661l-2.046,6.953h-3.007l-1.836-6.878c-.518-1.952-1.09-4.454-1.491-6.737h-.059c-.079,2.34-.189,5.011-.294,7.148l-.333,6.766h-3.6l1.215-18.3h4.987l1.687,6.266c.557,2.165,1.09,4.38,1.474,6.5h.079c.436-2.094.991-4.4,1.57-6.522l1.792-6.248h4.915l1.022,18.3H210.93Z" transform="translate(-181.036 -49.19)"/><path class="a" d="M213.942,54.6v2.689h-6.59V54.6Z" transform="translate(-171.489 -44.763)"/><path class="a" d="M216.553,67.611l-5.334-18.3h4.351l1.939,7.792c.544,2.114,1.044,4.233,1.437,6.474h.061c.393-2.189.9-4.367,1.432-6.45l2-7.816h4.253l-5.562,18.3Z" transform="translate(-168.248 -49.19)"/></g><g transform="translate(0 50)"><g transform="translate(196.866 33.729)"><rect class="a" width="1.965" height="56.989"/></g><g transform="translate(208.263 33.729)"><rect class="a" width="1.965" height="56.989"/></g><g transform="translate(219.661 33.729)"><rect class="a" width="1.965" height="56.989"/></g><g transform="translate(231.058 33.729)"><rect class="a" width="1.965" height="56.989"/></g><g transform="translate(186.45 78.338)"><rect class="a" width="56.989" height="1.965"/></g><g transform="translate(186.45 66.94)"><rect class="a" width="56.989" height="1.965"/></g><g transform="translate(186.45 55.543)"><rect class="a" width="56.989" height="1.965"/></g><g transform="translate(186.45 44.145)"><rect class="a" width="56.989" height="1.965"/></g><path class="b" d="M242.608,15a52.7,52.7,0,0,0-52.7,52.7v.048h16.42V67.7A36.282,36.282,0,0,1,242.608,31.42h.075V15Z" transform="translate(0.285 22.496)"/><path class="a" d="M217.775,43.088a38.256,38.256,0,0,0-8.226,12.2,41.137,41.137,0,0,0-3.013,14.99h4.195v-.05a34.221,34.221,0,0,1,34.183-34.181h.075V31.852a41.881,41.881,0,0,0-15.015,3.011A38.256,38.256,0,0,0,217.775,43.088Zm25.739-29.435a54.756,54.756,0,0,0-54.8,54.8V68.5h4.2c.292-27.445,23.245-50.307,50.674-50.647v-4.2Z" transform="translate(-0.715 21.369)"/><path class="a" d="M187.626,12.553V71.39h58.839V12.553ZM244.5,69.425H189.591V14.518H244.5Z" transform="translate(-1.626 20.447)"/></g></g></svg>