<svg width="452" height="336.689" xmlns="http://www.w3.org/2000/svg">
 <defs>
  <style>.a{fill:#b50018;}</style>
 </defs>
 <g>
  <title>background</title>
  <rect fill="none" id="canvas_background" height="338.689" width="454" y="-1" x="-1"/>
 </g>
 <g>
  <title>Layer 1</title>
  <g id="svg_1" transform="rotate(90 2436.2719726562505,-1256.3370361328127) ">
   <g id="svg_2">
    <rect id="svg_3" x="4005.218994" y="754.14502" height="24.08" width="24.08" class="a"/>
    <rect id="svg_4" x="3960.559998" y="754.14502" height="24.08" width="24.08" class="a"/>
    <rect id="svg_5" x="3915.902008" y="754.14502" height="24.08" width="24.08" class="a"/>
    <rect id="svg_6" x="3871.243011" y="754.14502" height="24.08" width="24.08" class="a"/>
    <rect id="svg_7" x="3826.585007" y="754.14502" height="24.08" width="24.08" class="a"/>
    <rect id="svg_8" x="3781.92601" y="754.14502" height="24.08" width="24.08" class="a"/>
    <rect id="svg_9" x="3737.26701" y="754.14502" height="24.08" width="24.08" class="a"/>
    <rect id="svg_10" x="3692.609009" y="754.14502" height="24.08" width="24.08" class="a"/>
   </g>
   <g id="svg_11">
    <rect id="svg_12" x="4005.218994" y="804.359009" height="24.08" width="24.08" class="a"/>
    <rect id="svg_13" x="3960.559998" y="804.359009" height="24.08" width="24.08" class="a"/>
    <rect id="svg_14" x="3915.902008" y="804.359009" height="24.08" width="24.08" class="a"/>
    <rect id="svg_15" x="3871.243011" y="804.359009" height="24.08" width="24.08" class="a"/>
    <rect id="svg_16" x="3826.585007" y="804.359009" height="24.08" width="24.08" class="a"/>
    <rect id="svg_17" x="3781.92601" y="804.359009" height="24.08" width="24.08" class="a"/>
    <rect id="svg_18" x="3737.26701" y="804.359009" height="24.08" width="24.08" class="a"/>
    <rect id="svg_19" x="3692.609009" y="804.359009" height="24.08" width="24.08" class="a"/>
   </g>
   <g id="svg_20">
    <rect id="svg_21" x="4005.218994" y="854.572876" height="24.08" width="24.08" class="a"/>
    <rect id="svg_22" x="3960.559998" y="854.572876" height="24.08" width="24.08" class="a"/>
    <rect id="svg_23" x="3915.902008" y="854.572876" height="24.08" width="24.08" class="a"/>
    <rect id="svg_24" x="3871.243011" y="854.572876" height="24.08" width="24.08" class="a"/>
    <rect id="svg_25" x="3826.585007" y="854.572876" height="24.08" width="24.08" class="a"/>
    <rect id="svg_26" x="3781.92601" y="854.572876" height="24.08" width="24.08" class="a"/>
    <rect id="svg_27" x="3737.26701" y="854.572876" height="24.08" width="24.08" class="a"/>
    <rect id="svg_28" x="3692.609009" y="854.572876" height="24.08" width="24.08" class="a"/>
   </g>
   <g id="svg_29">
    <rect id="svg_30" x="4005.218994" y="904.786987" height="24.08" width="24.08" class="a"/>
    <rect id="svg_31" x="3960.559998" y="904.786987" height="24.08" width="24.08" class="a"/>
    <rect id="svg_32" x="3915.902008" y="904.786987" height="24.08" width="24.08" class="a"/>
    <rect id="svg_33" x="3871.243011" y="904.786987" height="24.08" width="24.08" class="a"/>
    <rect id="svg_34" x="3826.585007" y="904.786987" height="24.08" width="24.08" class="a"/>
    <rect id="svg_35" x="3781.92601" y="904.786987" height="24.08" width="24.08" class="a"/>
    <rect id="svg_36" x="3737.26701" y="904.786987" height="24.08" width="24.08" class="a"/>
    <rect id="svg_37" x="3692.609009" y="904.786987" height="24.08" width="24.08" class="a"/>
   </g>
   <g id="svg_38">
    <rect id="svg_39" x="4005.218994" y="954.999878" height="24.08" width="24.08" class="a"/>
    <rect id="svg_40" x="3960.559998" y="954.999878" height="24.08" width="24.08" class="a"/>
    <rect id="svg_41" x="3915.902008" y="954.999878" height="24.08" width="24.08" class="a"/>
    <rect id="svg_42" x="3871.243011" y="954.999878" height="24.08" width="24.08" class="a"/>
    <rect id="svg_43" x="3826.585007" y="954.999878" height="24.08" width="24.08" class="a"/>
    <rect id="svg_44" x="3781.92601" y="954.999878" height="24.08" width="24.08" class="a"/>
    <rect id="svg_45" x="3737.26701" y="954.999878" height="24.08" width="24.08" class="a"/>
    <rect id="svg_46" x="3692.609009" y="954.999878" height="24.08" width="24.08" class="a"/>
   </g>
   <g id="svg_47">
    <rect id="svg_48" x="4005.218994" y="1005.213989" height="24.08" width="24.08" class="a"/>
    <rect id="svg_49" x="3960.559998" y="1005.213989" height="24.08" width="24.08" class="a"/>
    <rect id="svg_50" x="3915.902008" y="1005.213989" height="24.08" width="24.08" class="a"/>
    <rect id="svg_51" x="3871.243011" y="1005.213989" height="24.08" width="24.08" class="a"/>
    <rect id="svg_52" x="3826.585007" y="1005.213989" height="24.08" width="24.08" class="a"/>
    <rect id="svg_53" x="3781.92601" y="1005.213989" height="24.08" width="24.08" class="a"/>
    <rect id="svg_54" x="3737.26701" y="1005.213989" height="24.08" width="24.08" class="a"/>
    <rect id="svg_55" x="3692.609009" y="1005.213989" height="24.08" width="24.08" class="a"/>
   </g>
   <g id="svg_56">
    <rect id="svg_57" x="4005.218994" y="1055.427856" height="24.08" width="24.08" class="a"/>
    <rect id="svg_58" x="3960.559998" y="1055.427856" height="24.08" width="24.08" class="a"/>
    <rect id="svg_59" x="3915.902008" y="1055.427856" height="24.08" width="24.08" class="a"/>
    <rect id="svg_60" x="3871.243011" y="1055.427856" height="24.08" width="24.08" class="a"/>
    <rect id="svg_61" x="3826.585007" y="1055.427856" height="24.08" width="24.08" class="a"/>
    <rect id="svg_62" x="3781.92601" y="1055.427856" height="24.08" width="24.08" class="a"/>
    <rect id="svg_63" x="3737.26701" y="1055.427856" height="24.08" width="24.08" class="a"/>
    <rect id="svg_64" x="3692.609009" y="1055.427856" height="24.08" width="24.08" class="a"/>
   </g>
   <rect id="svg_65" x="4005.218994" y="1105.641968" height="24.08" width="24.08" class="a"/>
   <rect id="svg_66" x="3960.559937" y="1105.641968" height="24.08" width="24.08" class="a"/>
   <rect id="svg_67" x="3915.901978" y="1105.641968" height="24.08" width="24.08" class="a"/>
   <rect id="svg_68" x="3871.24292" y="1105.641968" height="24.08" width="24.08" class="a"/>
   <rect id="svg_69" x="3826.584961" y="1105.641968" height="24.08" width="24.08" class="a"/>
   <rect id="svg_70" x="3781.926025" y="1105.641968" height="24.08" width="24.08" class="a"/>
   <rect id="svg_71" x="3737.267944" y="1105.641968" height="24.08" width="24.08" class="a"/>
   <rect id="svg_72" x="3692.609009" y="1105.641968" height="24.08" width="24.08" class="a"/>
   <g id="svg_73">
    <rect id="svg_74" x="4005.218994" y="1155.856079" height="24.08" width="24.08" class="a"/>
    <rect id="svg_75" x="3960.559998" y="1155.856079" height="24.08" width="24.08" class="a"/>
    <rect id="svg_76" x="3915.902008" y="1155.856079" height="24.08" width="24.08" class="a"/>
    <rect id="svg_77" x="3871.243011" y="1155.856079" height="24.08" width="24.08" class="a"/>
    <rect id="svg_78" x="3826.585007" y="1155.856079" height="24.08" width="24.08" class="a"/>
    <rect id="svg_79" x="3781.92601" y="1155.856079" height="24.08" width="24.08" class="a"/>
    <rect id="svg_80" x="3737.26701" y="1155.856079" height="24.08" width="24.08" class="a"/>
    <rect id="svg_81" x="3692.609009" y="1155.856079" height="24.08" width="24.08" class="a"/>
   </g>
  </g>
 </g>
</svg>