<svg xmlns="http://www.w3.org/2000/svg" width="80.247" height="80.15" viewBox="0 0 80.247 80.15">
  <g id="vacuum-cleaner" transform="translate(0.608 0.5)">
    <g id="Group_83" data-name="Group 83" transform="translate(0)">
      <g id="Group_82" data-name="Group 82">
        <rect id="Rectangle_136" data-name="Rectangle 136" width="2.552" height="2.552" transform="translate(70.184 70.18)" stroke="#000" stroke-width="1"/>
        <rect id="Rectangle_137" data-name="Rectangle 137" width="2.552" height="2.552" transform="translate(44.664 71.456)" stroke="#000" stroke-width="1"/>
        <path id="Path_38" data-name="Path 38" d="M79.06,70.234a7.656,7.656,0,0,0-1.186-3V44.66A14.049,14.049,0,0,0,68.942,31.6V26.8a1.276,1.276,0,0,0-1.276-1.276H60.539l3.828-3.828h8.4a1.276,1.276,0,0,0,.9-.374l5.1-5.1a1.276,1.276,0,0,0,.374-.9V8.932a1.276,1.276,0,0,0-.374-.9l-5.1-5.1a1.276,1.276,0,0,0-.9-.374h-5.1V1.276A1.276,1.276,0,0,0,66.39,0H48.526a1.276,1.276,0,0,0-.9.374L37.416,10.582l-25.23,25.23-7.254,1.21v.022a1.25,1.25,0,0,0-.7.334L.408,41.206a1.276,1.276,0,0,0,0,1.8L11.892,54.494a1.276,1.276,0,0,0,1.8,0l3.828-3.828a1.241,1.241,0,0,0,.334-.7h.022l1.21-7.253L44.325,17.49l9.834-9.834H66.39A1.276,1.276,0,0,0,67.666,6.38V5.1h4.576L76.6,9.46v5.323L72.242,19.14h-8.4a1.276,1.276,0,0,0-.9.374L56.93,25.52H49.8A1.276,1.276,0,0,0,48.526,26.8v4.8A14.049,14.049,0,0,0,39.594,44.66V72.732a6.38,6.38,0,0,0,12.76,0h11.6a7.656,7.656,0,0,0,15.107-2.5ZM12.8,51.788l-9.68-9.68,2.024-2.024,9.68,9.68ZM17,41.206a1.276,1.276,0,0,0-.356.693l-.869,5.21L7.8,39.131l5.211-.869a1.277,1.277,0,0,0,.692-.356L38.318,13.288l3.3,3.3ZM43.422,14.784l-3.3-3.3,8.4-8.4,3.3,3.3ZM65.114,5.1H54.159L51.607,2.552H65.114ZM51.078,28.072H66.39v2.8a14.023,14.023,0,0,0-2.552-.244H53.63a14.024,14.024,0,0,0-2.552.244Zm2.552,5.1H63.838A11.5,11.5,0,0,1,75.252,43.384H42.217A11.5,11.5,0,0,1,53.63,33.176ZM42.146,45.936H75.322v2.552H42.146Zm33.176,5.1v5.1H67.666v-5.1Zm-33.176,0H65.114v2.552H42.146Zm0,5.1H65.114V57.42A1.276,1.276,0,0,0,66.39,58.7h8.932v6.14a7.613,7.613,0,0,0-2.552-.921V62.524a1.276,1.276,0,0,0-1.276-1.276H45.974A1.276,1.276,0,0,0,44.7,62.524V66.48a6.32,6.32,0,0,0-2.552,1.18ZM45.974,76.56A3.828,3.828,0,1,1,49.8,72.732,3.828,3.828,0,0,1,45.974,76.56Zm17.979-6.38H51.813a6.4,6.4,0,0,0-4.563-3.7V63.8H70.218v.115A7.666,7.666,0,0,0,63.953,70.18Zm7.541,6.38a5.1,5.1,0,1,1,5.1-5.1A5.1,5.1,0,0,1,71.494,76.56Z" transform="translate(-0.035)" stroke="#000" stroke-width="1"/>
        <path id="Path_39" data-name="Path 39" d="M7.713,323.828a3.828,3.828,0,1,0-3.828,3.828A3.828,3.828,0,0,0,7.713,323.828Zm-5.1,0A1.276,1.276,0,1,1,3.885,325.1,1.276,1.276,0,0,1,2.609,323.828Z" transform="translate(-0.053 -268.96)" stroke="#000" stroke-width="1"/>
        <path id="Path_40" data-name="Path 40" d="M5.161,432a5.1,5.1,0,1,0,5.1,5.1A5.1,5.1,0,0,0,5.161,432Zm0,7.656A2.552,2.552,0,1,1,7.713,437.1,2.552,2.552,0,0,1,5.161,439.656Z" transform="translate(-0.053 -363.096)" stroke="#000" stroke-width="1"/>
        <path id="Path_41" data-name="Path 41" d="M51.885,368a3.828,3.828,0,1,0,3.828,3.828A3.828,3.828,0,0,0,51.885,368Zm0,5.1a1.276,1.276,0,1,1,1.276-1.276A1.276,1.276,0,0,1,51.885,373.1Z" transform="translate(-40.397 -309.304)" stroke="#000" stroke-width="1"/>
        <path id="Path_42" data-name="Path 42" d="M123.885,392a3.828,3.828,0,1,0,3.828,3.828A3.828,3.828,0,0,0,123.885,392Zm0,5.1a1.276,1.276,0,1,1,1.276-1.276A1.276,1.276,0,0,1,123.885,397.1Z" transform="translate(-100.913 -329.476)" stroke="#000" stroke-width="1"/>
        <path id="Path_43" data-name="Path 43" d="M125.161,304a5.1,5.1,0,1,0,5.1,5.1A5.1,5.1,0,0,0,125.161,304Zm0,7.656a2.552,2.552,0,1,1,2.552-2.552A2.552,2.552,0,0,1,125.161,311.656Z" transform="translate(-100.913 -255.512)" stroke="#000" stroke-width="1"/>
        <rect id="Rectangle_138" data-name="Rectangle 138" width="2.552" height="2.552" transform="translate(12.764 68.904)" stroke="#000" stroke-width="1"/>
        <rect id="Rectangle_139" data-name="Rectangle 139" width="2.552" height="2.552" transform="translate(17.868 72.732)" stroke="#000" stroke-width="1"/>
      </g>
    </g>
  </g>
</svg>
