<svg xmlns="http://www.w3.org/2000/svg" width="86.661" height="86.661" viewBox="0 0 86.661 86.661">
  <g id="Group_84" data-name="Group 84" transform="translate(531.496 -60.504)">
    <path id="Path_44" data-name="Path 44" d="M-370.026,243.292c-3.167,0-6.467-4.181-7.4-5.462l-.939-1.305-1.188.761a12.5,12.5,0,0,1-6.752,1.98,2.015,2.015,0,0,1-2.013-2.013,2.015,2.015,0,0,1,2.013-2.013,8.537,8.537,0,0,0,5.2-1.782l.84-.65-.341-1.005a17.728,17.728,0,0,1-.524-1.873l-.258-1.168h-5.092a2.015,2.015,0,0,1-2.013-2.013,2.015,2.015,0,0,1,2.013-2.013h4.93l.137-1.337a9.879,9.879,0,0,1,.411-2.026l.341-1.067-.93-.623a8.436,8.436,0,0,0-4.713-1.426,2.015,2.015,0,0,1-2.013-2.013,2.015,2.015,0,0,1,2.013-2.013,12.383,12.383,0,0,1,7.354,2.388l.8.584.848-.511a8.558,8.558,0,0,1,2.86-1.085l-.269-2.91,1.447,1.447c0-2.514,1.486-4.639,3.244-4.639s3.244,2.124,3.244,4.639l1.447-1.447-.269,2.91a8.561,8.561,0,0,1,2.86,1.085l.848.511.8-.584a12.382,12.382,0,0,1,7.354-2.388,2.015,2.015,0,0,1,2.013,2.013,2.015,2.015,0,0,1-2.013,2.013,8.434,8.434,0,0,0-4.713,1.426l-.93.623.34,1.066a9.921,9.921,0,0,1,.405,2.026l.137,1.337h4.935a2.015,2.015,0,0,1,2.013,2.013,2.015,2.015,0,0,1-2.013,2.013h-5.079l-.253,1.175a17.431,17.431,0,0,1-.521,1.885l-.34,1.008.844.648a8.542,8.542,0,0,0,5.175,1.762,2.015,2.015,0,0,1,2.013,2.013,2.015,2.015,0,0,1-2.013,2.013,12.505,12.505,0,0,1-6.732-1.968l-1.187-.757-.822,1.143-.143.2C-363.563,239.149-366.859,243.292-370.026,243.292Zm-7.44-16.571a15.847,15.847,0,0,0,2.84,8.1,15.208,15.208,0,0,0,3.788,4.044l.813.535.816-.531a15.048,15.048,0,0,0,3.782-4,15.988,15.988,0,0,0,2.84-8.173c0-.036,0-.073,0-.11a14.425,14.425,0,0,0-.3-3.99,4.51,4.51,0,0,0-4.332-3.111h-5.624a4.509,4.509,0,0,0-4.332,3.111,14.408,14.408,0,0,0-.3,3.99C-377.471,226.617-377.47,226.664-377.466,226.721Z" transform="translate(-117.964 -122.914)"/>
    <path id="Path_45" data-name="Path 45" d="M-488.165,147.165a2.015,2.015,0,0,1-2.013-2.013v-3.8l-1.358-.12a37.018,37.018,0,0,1-23.183-10.848A37.019,37.019,0,0,1-525.568,107.2l-.12-1.358h-3.8a2.015,2.015,0,0,1-2.013-2.013,2.015,2.015,0,0,1,2.013-2.013h3.8l.12-1.358A37.021,37.021,0,0,1-514.72,77.28a37.02,37.02,0,0,1,23.183-10.848l1.358-.12v-3.8a2.015,2.015,0,0,1,2.013-2.013,2.015,2.015,0,0,1,2.013,2.013v3.8l1.358.12A37.017,37.017,0,0,1-461.612,77.28a37.021,37.021,0,0,1,10.849,23.183l.12,1.358h3.8a2.015,2.015,0,0,1,2.013,2.012,2.015,2.015,0,0,1-2.013,2.013h-3.795l-.121,1.356a37.62,37.62,0,0,1-5.484,16.427,2,2,0,0,1-1.713.951,2.006,2.006,0,0,1-1.059-.3,2.015,2.015,0,0,1-.647-2.772,33.607,33.607,0,0,0,4.828-14.007l.18-1.651h-4.794a2.015,2.015,0,0,1-2.013-2.013,2.015,2.015,0,0,1,2.013-2.013h4.795l-.18-1.65A33.71,33.71,0,0,0-484.5,70.508l-1.65-.18v4.795a2.015,2.015,0,0,1-2.013,2.013,2.015,2.015,0,0,1-2.013-2.013V70.327l-1.65.18a33.71,33.71,0,0,0-29.664,29.664l-.18,1.65h4.795a2.015,2.015,0,0,1,2.013,2.013,2.015,2.015,0,0,1-2.013,2.013h-4.795l.18,1.65a33.71,33.71,0,0,0,29.664,29.664l1.65.18v-4.795a2.015,2.015,0,0,1,2.013-2.013,2.015,2.015,0,0,1,2.013,2.013v4.792l1.651-.181a33.208,33.208,0,0,0,13.181-4.328,2.009,2.009,0,0,1,1.009-.274,2.023,2.023,0,0,1,1.743,1,2.015,2.015,0,0,1-.727,2.752,37.705,37.705,0,0,1-15.5,4.927l-1.356.122v3.8A2.015,2.015,0,0,1-488.165,147.165Z"/>
  </g>
</svg>
