<svg xmlns="http://www.w3.org/2000/svg" width="20.682" height="20.694" viewBox="0 0 20.682 20.694">
  <g id="Group_98" data-name="Group 98" transform="translate(0.049 0.05)">
    <path id="Path_24" data-name="Path 24" d="M160.407,123.673a21.845,21.845,0,0,0,7.266,5.693,11.335,11.335,0,0,0,4.065,1.2c.1,0,.193.009.292.009a3.36,3.36,0,0,0,2.609-1.124l.018-.02a11.23,11.23,0,0,1,.823-.852c.2-.193.406-.394.6-.6a2.061,2.061,0,0,0-.009-3.067l-2.565-2.565a2.078,2.078,0,0,0-1.5-.692,2.145,2.145,0,0,0-1.517.686l-1.529,1.529c-.14-.082-.286-.155-.42-.222a5.31,5.31,0,0,1-.47-.257,16.15,16.15,0,0,1-3.864-3.516,9.373,9.373,0,0,1-1.3-2.081c.4-.365.776-.744,1.138-1.115.128-.131.263-.266.394-.4a2.019,2.019,0,0,0,0-3.073l-1.272-1.269c-.149-.152-.289-.295-.435-.446-.28-.289-.575-.587-.867-.855a2.119,2.119,0,0,0-1.5-.66,2.192,2.192,0,0,0-1.52.662l-1.6,1.6a3.286,3.286,0,0,0-.978,2.1,7.922,7.922,0,0,0,.6,3.414A19.75,19.75,0,0,0,160.407,123.673Zm-3.1-9.242a2.249,2.249,0,0,1,.68-1.45l1.585-1.587a1.152,1.152,0,0,1,.788-.362,1.091,1.091,0,0,1,.768.371c.286.263.554.543.843.835.146.152.295.3.444.452l1.272,1.272a1,1,0,0,1,0,1.6c-.131.131-.266.269-.4.4-.4.4-.767.782-1.179,1.144l-.02.023a.834.834,0,0,0-.213.945l.012.035a10.045,10.045,0,0,0,1.5,2.437,17.068,17.068,0,0,0,4.112,3.747,5.925,5.925,0,0,0,.563.306,4.666,4.666,0,0,1,.47.257l.047.023a.886.886,0,0,0,.414.108.905.905,0,0,0,.636-.292l1.6-1.593a1.126,1.126,0,0,1,.779-.382,1.069,1.069,0,0,1,.756.382l2.574,2.568a1.028,1.028,0,0,1-.015,1.608c-.178.193-.365.376-.566.569a12.277,12.277,0,0,0-.893.925,2.342,2.342,0,0,1-1.83.776c-.073,0-.149,0-.222-.009a10.284,10.284,0,0,1-3.677-1.1,20.78,20.78,0,0,1-6.919-5.419,19.073,19.073,0,0,1-3.371-5.612A6.922,6.922,0,0,1,157.308,114.431Z" transform="translate(-156.249 -109.984)" fill="#fff" stroke="#fff" stroke-miterlimit="10" stroke-width="0.1"/>
  </g>
</svg>
