<svg id="Group_96" data-name="Group 96" xmlns="http://www.w3.org/2000/svg" width="18.09" height="24.119" viewBox="0 0 18.09 24.119">
  <g id="_1" data-name="1">
    <g id="Group_95" data-name="Group 95">
      <path id="Path_64" data-name="Path 64" d="M22.25,134.976a3.769,3.769,0,1,0,3.767,3.771A3.769,3.769,0,0,0,22.25,134.976Zm0,6.029a2.26,2.26,0,1,1,2.262-2.258A2.258,2.258,0,0,1,22.25,141Zm0-11.3a9.048,9.048,0,0,0-9.047,9.047c0,3.78,7.541,15.079,9.047,15.072,1.479.007,9.043-11.341,9.043-15.072A9.047,9.047,0,0,0,22.25,129.7Zm0,21.857c-1.255.007-7.538-9.661-7.538-12.811a7.536,7.536,0,1,1,15.072,0C29.784,141.853,23.481,151.564,22.25,151.557Z" transform="translate(-13.203 -129.7)" fill="#fff"/>
    </g>
  </g>
</svg>
