<svg xmlns="http://www.w3.org/2000/svg" width="22.162" height="16.88" viewBox="0 0 22.162 16.88">
  <g id="Group_99" data-name="Group 99" transform="translate(-5.014)">
    <g id="Group_67" data-name="Group 67" transform="translate(5.014)">
      <path id="Path_25" data-name="Path 25" d="M175.949,134.708H157.684a1.952,1.952,0,0,0-1.95,1.949v12.984a1.951,1.951,0,0,0,1.95,1.946h18.266a1.948,1.948,0,0,0,1.946-1.946V136.657A1.951,1.951,0,0,0,175.949,134.708Zm-.271,1.3-8.82,8.823-8.9-8.823Zm-18.645,13.366V136.919l6.252,6.2Zm.918.918,6.258-6.258,2.193,2.174a.647.647,0,0,0,.915,0l2.14-2.137,6.221,6.224Zm18.648-.918-6.224-6.224,6.224-6.224Z" transform="translate(-155.734 -134.708)" fill="#fff"/>
    </g>
  </g>
</svg>
