<svg xmlns="http://www.w3.org/2000/svg" width="73.496" height="87.008" viewBox="0 0 73.496 87.008">
  <g id="Group_86" data-name="Group 86" transform="translate(-41.835 -2.835)">
    <path id="Path_49" data-name="Path 49" d="M43.982,353.929a2.149,2.149,0,0,1-2.147-2.147v-3.061a27.034,27.034,0,0,1,27-27h19.49a27.033,27.033,0,0,1,27,27v3.061a2.149,2.149,0,0,1-2.147,2.147Zm36.748-4.294h30.308v-.915a22.735,22.735,0,0,0-22.71-22.71h-7.6ZM68.838,326.011a22.735,22.735,0,0,0-22.71,22.71v.915H76.436V326.011Z" transform="translate(0 -264.086)"/>
    <path id="Path_50" data-name="Path 50" d="M303.425,393.967a2.139,2.139,0,0,1-1.483-.595l-5.267-5.033a2.158,2.158,0,0,1-.663-1.552v-7.024a2.149,2.149,0,0,1,2.146-2.147h10.536a2.149,2.149,0,0,1,2.147,2.147v7.024a2.16,2.16,0,0,1-.664,1.553l-5.268,5.033A2.136,2.136,0,0,1,303.425,393.967Zm-3.121-8.1,3.121,2.982,3.121-2.982V381.91H300.3Z" transform="translate(-210.498 -310.379)"/>
    <path id="Path_51" data-name="Path 51" d="M145.766,52.34a18.05,18.05,0,0,1-17.66-21.749l.064-.306-.252-.186a19.97,19.97,0,0,1-2.078-1.759l-.05-.055c-.031-.031-.056-.059-.08-.086l-.025-.027a1.83,1.83,0,0,1-.412-.78l-1.583-6.71c-.074-.316-.152-.632-.23-.948-.152-.616-.309-1.253-.436-1.878a2.7,2.7,0,0,1,.544-2.28,30.526,30.526,0,0,1,12-10.467,24.059,24.059,0,0,1,22.6,1.164A30.828,30.828,0,0,1,165.129,12a25.249,25.249,0,0,1,3.113,3.985c.652,1.1.129,2.932-.292,4.4-.112.391-.218.76-.3,1.1-.1.429-.23.978-.369,1.571-.4,1.708-1,4.286-1.082,4.527,0,0-.016.039-.025.059a1.881,1.881,0,0,1-.522.728l-.02.018a20.026,20.026,0,0,1-2.02,1.7l-.252.186.064.306a18.05,18.05,0,0,1-17.66,21.749Zm-13.7-19.156c-.033.4-.049.767-.049,1.114a13.749,13.749,0,0,0,27.5,0c0-.337-.016-.7-.048-1.112l-.053-.663-.616.251a34.657,34.657,0,0,1-13.031,2.24,34.66,34.66,0,0,1-13.032-2.24l-.615-.25Zm13.7-10.3c-6.008,0-10.879,1.18-14.479,3.507l-.633.409.633.409c3.6,2.327,8.471,3.507,14.479,3.507s10.88-1.18,14.479-3.507l.633-.409-.633-.409C156.645,24.066,151.773,22.886,145.766,22.886Zm-.012-15.822a21.018,21.018,0,0,0-13.745,5.19,22.287,22.287,0,0,0-4.536,5.2l-.1.168.044.188s.71,3.007,1.065,4.511l.156.662.577-.361c4.267-2.673,9.834-4.028,16.548-4.028s12.282,1.355,16.549,4.028l.577.361,1.264-5.362-.1-.168a22.375,22.375,0,0,0-4.548-5.2A21.066,21.066,0,0,0,145.754,7.064Z" transform="translate(-67.183)"/>
    <path id="Path_52" data-name="Path 52" d="M245.326,54.41a2.181,2.181,0,0,1-2.147-2.169,1.936,1.936,0,0,1,.571-1.42,2.241,2.241,0,0,1,1.576-.705,2.18,2.18,0,0,1,2.147,2.169,1.934,1.934,0,0,1-.57,1.42A2.242,2.242,0,0,1,245.326,54.41Z" transform="translate(-166.744 -39.156)"/>
  </g>
</svg>
