<svg xmlns="http://www.w3.org/2000/svg" width="132.244" height="58.837" viewBox="0 0 132.244 58.837">
  <g id="Group_113" data-name="Group 113" transform="translate(-186 -83)">
    <g id="Group_37" data-name="Group 37" transform="translate(259.8 103)">
      <path id="Path_8" data-name="Path 8" d="M187.841,49.629a28.784,28.784,0,0,1,4.952-.382c2.274,0,3.862.241,5.176,1.107a4.005,4.005,0,0,1,1.943,3.525,4.159,4.159,0,0,1-2.9,3.922v.077a4.5,4.5,0,0,1,3.52,4.448,4.862,4.862,0,0,1-1.733,3.8c-1.266,1.11-3.371,1.719-6.84,1.719a29.246,29.246,0,0,1-4.121-.25Zm3.933,7.078h1.167c1.923,0,3.014-.961,3.014-2.36,0-1.375-.928-2.2-2.671-2.2a6.682,6.682,0,0,0-1.511.123Zm0,8.1a7.981,7.981,0,0,0,1.347.072c1.75,0,3.263-.777,3.263-2.682,0-1.833-1.524-2.63-3.389-2.634h-1.22Z" transform="translate(-187.841 -49.247)" fill="#fff"/>
      <path id="Path_9" data-name="Path 9" d="M210.634,60.794c-.088-2.079-.182-4.628-.164-7.1H210.4c-.505,2.228-1.191,4.724-1.776,6.661l-2.046,6.953h-3.007l-1.836-6.878c-.518-1.952-1.09-4.454-1.491-6.737h-.059c-.079,2.34-.189,5.011-.294,7.148l-.333,6.766h-3.6l1.215-18.3h4.987l1.687,6.266c.557,2.165,1.09,4.38,1.474,6.5h.079c.436-2.094.991-4.4,1.57-6.522l1.792-6.248h4.915l1.022,18.3H210.93Z" transform="translate(-181.036 -49.19)" fill="#fff"/>
      <path id="Path_10" data-name="Path 10" d="M213.942,54.6v2.689h-6.59V54.6Z" transform="translate(-171.489 -44.763)" fill="#fff"/>
      <path id="Path_11" data-name="Path 11" d="M216.553,67.611l-5.334-18.3h4.351l1.939,7.792c.544,2.114,1.044,4.233,1.437,6.474h.061c.393-2.189.9-4.367,1.432-6.45l2-7.816h4.253l-5.562,18.3Z" transform="translate(-168.248 -49.19)" fill="#fff"/>
    </g>
    <g id="Group_43" data-name="Group 43" transform="translate(0 50)">
      <g id="Group_22" data-name="Group 22" transform="translate(196.866 33.729)">
        <g id="Group_21" data-name="Group 21">
          <rect id="Rectangle_13" data-name="Rectangle 13" width="1.965" height="56.989" fill="#fff"/>
        </g>
      </g>
      <g id="Group_24" data-name="Group 24" transform="translate(208.263 33.729)">
        <g id="Group_23" data-name="Group 23">
          <rect id="Rectangle_14" data-name="Rectangle 14" width="1.965" height="56.989" fill="#fff"/>
        </g>
      </g>
      <g id="Group_26" data-name="Group 26" transform="translate(219.661 33.729)">
        <g id="Group_25" data-name="Group 25">
          <rect id="Rectangle_15" data-name="Rectangle 15" width="1.965" height="56.989" fill="#fff"/>
        </g>
      </g>
      <g id="Group_28" data-name="Group 28" transform="translate(231.058 33.729)">
        <g id="Group_27" data-name="Group 27">
          <rect id="Rectangle_16" data-name="Rectangle 16" width="1.965" height="56.989" fill="#fff"/>
        </g>
      </g>
      <g id="Group_30" data-name="Group 30" transform="translate(186.45 78.338)">
        <g id="Group_29" data-name="Group 29">
          <rect id="Rectangle_17" data-name="Rectangle 17" width="56.989" height="1.965" fill="#fff"/>
        </g>
      </g>
      <g id="Group_32" data-name="Group 32" transform="translate(186.45 66.94)">
        <g id="Group_31" data-name="Group 31">
          <rect id="Rectangle_18" data-name="Rectangle 18" width="56.989" height="1.965" fill="#fff"/>
        </g>
      </g>
      <g id="Group_34" data-name="Group 34" transform="translate(186.45 55.543)">
        <g id="Group_33" data-name="Group 33">
          <rect id="Rectangle_19" data-name="Rectangle 19" width="56.989" height="1.965" fill="#fff"/>
        </g>
      </g>
      <g id="Group_36" data-name="Group 36" transform="translate(186.45 44.145)">
        <g id="Group_35" data-name="Group 35">
          <rect id="Rectangle_20" data-name="Rectangle 20" width="56.989" height="1.965" fill="#fff"/>
        </g>
      </g>
      <path id="Path_12" data-name="Path 12" d="M242.608,15a52.7,52.7,0,0,0-52.7,52.7v.048h16.42V67.7A36.282,36.282,0,0,1,242.608,31.42h.075V15Z" transform="translate(0.285 22.496)" fill="#ce001b"/>
      <path id="Path_13" data-name="Path 13" d="M217.775,43.088a38.256,38.256,0,0,0-8.226,12.2,41.137,41.137,0,0,0-3.013,14.99h4.195v-.05a34.221,34.221,0,0,1,34.183-34.181h.075V31.852a41.881,41.881,0,0,0-15.015,3.011A38.256,38.256,0,0,0,217.775,43.088Zm25.739-29.435a54.756,54.756,0,0,0-54.8,54.8V68.5h4.2c.292-27.445,23.245-50.307,50.674-50.647v-4.2Z" transform="translate(-0.715 21.369)" fill="#fff"/>
      <path id="Path_14" data-name="Path 14" d="M187.626,12.553V71.39h58.839V12.553ZM244.5,69.425H189.591V14.518H244.5Z" transform="translate(-1.626 20.447)" fill="#fff"/>
    </g>
  </g>
</svg>
