<svg xmlns="http://www.w3.org/2000/svg" width="387.252" height="387.255" viewBox="0 0 387.252 387.255"><defs><style>.a{opacity:0.05;}</style></defs><g class="a" transform="translate(0)"><path d="M531.948,573.092a9.531,9.531,0,0,1-9.506-8.587l-4.036-39.535a14.638,14.638,0,0,0-9.073-11.984l-.294-.121a15.04,15.04,0,0,0-5.792-1.16,14.465,14.465,0,0,0-9.115,3.212l-30.81,25.1a9.592,9.592,0,0,1-6.033,2.146,9.492,9.492,0,0,1-6.758-2.8l-45.974-45.974A9.528,9.528,0,0,1,403.9,480.6L429,449.789a14.652,14.652,0,0,0,2.049-14.915l-.119-.284a14.629,14.629,0,0,0-11.98-9.072l-39.538-4.039a9.525,9.525,0,0,1-8.583-9.506V346.956a9.525,9.525,0,0,1,8.582-9.506l39.537-4.04a14.629,14.629,0,0,0,11.984-9.073l.122-.29A14.643,14.643,0,0,0,429,309.139l-25.1-30.811a9.528,9.528,0,0,1,.652-12.792l45.974-45.975a9.557,9.557,0,0,1,12.793-.652l30.811,25.1a14.459,14.459,0,0,0,9.113,3.211,15.061,15.061,0,0,0,5.8-1.165l.251-.1a14.66,14.66,0,0,0,9.1-12l4.039-39.535a9.527,9.527,0,0,1,9.506-8.586h65.018a9.531,9.531,0,0,1,9.506,8.586l4.039,39.535a14.639,14.639,0,0,0,9.073,11.984l.275.113a15.07,15.07,0,0,0,5.811,1.168,14.458,14.458,0,0,0,9.115-3.213l30.808-25.1a9.555,9.555,0,0,1,12.792.649l45.974,45.975a9.529,9.529,0,0,1,.653,12.792L694.267,316.07l.592,1.242a144.542,144.542,0,0,1,5.757,13.895l.46,1.3,48.426,4.947a9.522,9.522,0,0,1,8.583,9.505v65.019a9.525,9.525,0,0,1-8.582,9.506l-39.537,4.039a14.638,14.638,0,0,0-11.984,9.073l-.11.265a14.674,14.674,0,0,0,2.042,14.934l25.1,30.812a9.531,9.531,0,0,1-.65,12.792l-45.977,45.973a9.489,9.489,0,0,1-6.758,2.8h0a9.585,9.585,0,0,1-6.035-2.147l-30.808-25.1a14.458,14.458,0,0,0-9.113-3.213,15.031,15.031,0,0,0-5.8,1.168l-.257.1a14.652,14.652,0,0,0-9.1,11.995l-4.036,39.536a9.531,9.531,0,0,1-9.506,8.586Zm-28.7-80.5a34.077,34.077,0,0,1,13.134,2.63l.244.1a33.7,33.7,0,0,1,20.794,27.706l3.164,30.95h47.758l3.164-30.953a33.711,33.711,0,0,1,20.792-27.7l.267-.112a34.015,34.015,0,0,1,13.11-2.623,33.632,33.632,0,0,1,21.185,7.514l24.119,19.65,33.772-33.772L685.1,461.861a33.745,33.745,0,0,1-4.878-34.32l.1-.256a33.717,33.717,0,0,1,27.7-20.782l30.949-3.16V355.585l-46.08-4.708a9.524,9.524,0,0,1-8.2-6.811,124.532,124.532,0,0,0-10.186-24.587,9.516,9.516,0,0,1,.979-10.615l29.258-35.915-33.772-33.771-24.119,19.649a33.624,33.624,0,0,1-21.182,7.512,34.081,34.081,0,0,1-13.134-2.629l-.251-.1A33.71,33.71,0,0,1,591.5,235.9l-3.164-30.949H540.581L537.417,235.9a33.713,33.713,0,0,1-20.791,27.7l-.252.107a34.083,34.083,0,0,1-13.129,2.626,33.629,33.629,0,0,1-21.181-7.509l-24.12-19.652-33.771,33.771,19.648,24.122a33.735,33.735,0,0,1,4.88,34.317l-.1.238a33.716,33.716,0,0,1-27.708,20.8l-30.949,3.16v47.758l30.95,3.16A33.724,33.724,0,0,1,448.6,427.3l.1.245a33.729,33.729,0,0,1-4.879,34.317L424.173,485.98l33.771,33.772,24.12-19.65A33.621,33.621,0,0,1,503.246,492.59Z" transform="translate(-370.832 -185.837)"/><path d="M601.331,459.807a9.5,9.5,0,0,1-6.758-2.8L570.8,433.233a9.556,9.556,0,0,1,13.515-13.514l17.018,17.019,35.422-35.419a9.553,9.553,0,0,1,13.509,13.512l-42.176,42.178A9.495,9.495,0,0,1,601.331,459.807Z" transform="translate(-416.902 -235.532)"/><path d="M595.594,502.129a91.528,91.528,0,1,1,91.527-91.53A91.632,91.632,0,0,1,595.594,502.129Zm0-163.948A72.419,72.419,0,1,0,668.01,410.6,72.5,72.5,0,0,0,595.594,338.181Z" transform="translate(-401.964 -216.969)"/></g></svg>