<svg xmlns="http://www.w3.org/2000/svg" width="388.249" height="388.303" viewBox="0 0 388.249 388.303"><defs><style>.a{opacity:0.05;}.b{stroke:#000;}</style></defs><g class="a" transform="translate(0.5 0.5)"><g transform="translate(0)"><rect class="b" width="12.488" height="12.488" transform="translate(343.429 343.412)"/><rect class="b" width="12.488" height="12.488" transform="translate(218.552 349.655)"/><path class="b" d="M386.729,343.675a37.464,37.464,0,0,0-5.8-14.686V218.535a68.745,68.745,0,0,0-43.707-63.912v-23.5a6.244,6.244,0,0,0-6.244-6.244H296.1l18.732-18.732h41.122a6.243,6.243,0,0,0,4.414-1.829l24.975-24.975a6.243,6.243,0,0,0,1.829-4.414V43.707a6.243,6.243,0,0,0-1.829-4.414L360.366,14.317a6.243,6.243,0,0,0-4.414-1.829H330.976V6.244A6.244,6.244,0,0,0,324.732,0H237.318A6.243,6.243,0,0,0,232.9,1.829L182.953,51.78,59.494,175.24,24,181.159v.106a6.115,6.115,0,0,0-3.4,1.636L1.863,201.633a6.244,6.244,0,0,0,0,8.829l56.195,56.195a6.244,6.244,0,0,0,8.829,0l18.732-18.732a6.072,6.072,0,0,0,1.636-3.409h.106l5.919-35.49L216.757,85.584l48.121-48.121h59.854a6.244,6.244,0,0,0,6.244-6.244V24.975h22.39l21.317,21.316V72.341L353.367,93.658H312.245a6.243,6.243,0,0,0-4.414,1.829l-29.39,29.39H243.562a6.244,6.244,0,0,0-6.244,6.244v23.5a68.746,68.746,0,0,0-43.707,63.912V355.9a31.219,31.219,0,0,0,62.439,0h56.757a37.463,37.463,0,0,0,73.923-12.225ZM62.491,253.413,15.125,206.047l9.9-9.9L72.393,243.51Zm20.561-51.78a6.243,6.243,0,0,0-1.742,3.39l-4.252,25.494L38.021,191.48l25.5-4.252a6.248,6.248,0,0,0,3.384-1.742L187.368,65.023,203.514,81.17ZM212.343,72.341,196.2,56.195l41.122-41.122,16.147,16.147ZM318.488,24.975h-53.61L252.391,12.488h66.1ZM249.806,137.365h74.926v13.68a68.618,68.618,0,0,0-12.488-1.193H262.294a68.625,68.625,0,0,0-12.488,1.193Zm12.488,24.975h49.951A56.276,56.276,0,0,1,368.1,212.291H206.443A56.275,56.275,0,0,1,262.294,162.34ZM206.1,224.778h162.34v12.488H206.1Zm162.34,24.975v24.975H330.976V249.754Zm-162.34,0H318.488v12.488H206.1Zm0,24.975H318.488v6.244a6.244,6.244,0,0,0,6.244,6.244h43.707v30.045a37.251,37.251,0,0,0-12.488-4.508v-6.806a6.244,6.244,0,0,0-6.244-6.244H224.831a6.244,6.244,0,0,0-6.244,6.244V325.3A30.927,30.927,0,0,0,206.1,331.08Zm18.732,99.9A18.732,18.732,0,1,1,243.562,355.9,18.731,18.731,0,0,1,224.831,374.631Zm87.976-31.219H253.4A31.307,31.307,0,0,0,231.075,325.3V312.192H343.464v.562A37.513,37.513,0,0,0,312.807,343.412Zm36.9,31.219a24.975,24.975,0,1,1,24.975-24.975A24.976,24.976,0,0,1,349.708,374.631Z" transform="translate(-0.035 0)"/><path class="b" d="M37.52,338.732a18.732,18.732,0,1,0-18.732,18.731A18.731,18.731,0,0,0,37.52,338.732Zm-24.975,0a6.244,6.244,0,1,1,6.244,6.244A6.244,6.244,0,0,1,12.545,338.732Z" transform="translate(-0.04 -70.246)"/><path class="b" d="M25.032,432a24.975,24.975,0,1,0,24.975,24.975A24.975,24.975,0,0,0,25.032,432Zm0,37.463A12.488,12.488,0,1,1,37.52,456.976,12.487,12.487,0,0,1,25.032,469.463Z" transform="translate(-0.04 -94.832)"/><path class="b" d="M66.789,368A18.732,18.732,0,1,0,85.52,386.732,18.731,18.731,0,0,0,66.789,368Zm0,24.975a6.244,6.244,0,1,1,6.244-6.244A6.244,6.244,0,0,1,66.789,392.975Z" transform="translate(-10.577 -80.783)"/><path class="b" d="M138.789,392a18.732,18.732,0,1,0,18.732,18.732A18.732,18.732,0,0,0,138.789,392Zm0,24.975a6.244,6.244,0,1,1,6.244-6.244A6.244,6.244,0,0,1,138.789,416.976Z" transform="translate(-26.382 -86.052)"/><path class="b" d="M145.032,304a24.975,24.975,0,1,0,24.975,24.975A24.976,24.976,0,0,0,145.032,304Zm0,37.463a12.488,12.488,0,1,1,12.488-12.488A12.487,12.487,0,0,1,145.032,341.463Z" transform="translate(-26.382 -66.734)"/><rect class="b" width="12.488" height="12.488" transform="translate(62.456 337.168)"/><rect class="b" width="12.488" height="12.488" transform="translate(87.431 355.899)"/></g></g></svg>