<svg xmlns="http://www.w3.org/2000/svg" width="207.395" height="207.191" viewBox="0 0 207.395 207.191"><defs><style>.a{opacity:0.1;}.b{stroke:#000;}</style></defs><g class="a" transform="translate(0.732 0.5)"><g transform="translate(0)"><rect class="b" width="6.648" height="6.648" transform="translate(182.834 182.824)"/><rect class="b" width="6.648" height="6.648" transform="translate(116.352 186.148)"/><path class="b" d="M205.9,182.964a19.945,19.945,0,0,0-3.089-7.819v-58.8a36.6,36.6,0,0,0-23.269-34.025V69.806a3.324,3.324,0,0,0-3.324-3.324H157.652l9.972-9.972h21.892a3.324,3.324,0,0,0,2.35-.974l13.3-13.3a3.324,3.324,0,0,0,.974-2.35V23.269a3.323,3.323,0,0,0-.974-2.35l-13.3-13.3a3.324,3.324,0,0,0-2.35-.974h-13.3V3.324A3.324,3.324,0,0,0,172.9,0H126.359a3.324,3.324,0,0,0-2.35.974L97.416,27.567,31.689,93.294l-18.9,3.151V96.5a3.255,3.255,0,0,0-1.812.871l-9.972,9.972a3.324,3.324,0,0,0,0,4.7l29.917,29.917a3.324,3.324,0,0,0,4.7,0l9.972-9.972a3.232,3.232,0,0,0,.871-1.815h.057l3.151-18.894,65.737-65.717,25.619-25.619H172.9a3.324,3.324,0,0,0,3.324-3.324V13.3h11.92l11.348,11.348V38.513L188.14,49.861H166.248a3.324,3.324,0,0,0-2.35.974L148.252,66.482H129.683a3.324,3.324,0,0,0-3.324,3.324V82.318a36.6,36.6,0,0,0-23.269,34.025v73.13a16.62,16.62,0,0,0,33.241,0h30.216a19.945,19.945,0,0,0,39.355-6.508ZM33.285,134.911,8.068,109.695l5.272-5.272,25.216,25.216Zm10.946-27.567a3.323,3.323,0,0,0-.927,1.8L41.04,122.722,20.258,101.94l13.576-2.264a3.326,3.326,0,0,0,1.8-.927L99.766,34.617l8.6,8.6Zm68.832-68.832-8.6-8.6L126.359,8.024l8.6,8.6ZM169.572,13.3H141.032l-6.648-6.648h35.189ZM133.007,73.13H172.9v7.283a36.53,36.53,0,0,0-6.648-.635H139.655a36.534,36.534,0,0,0-6.648.635Zm6.648,13.3h26.593a29.96,29.96,0,0,1,29.734,26.593h-86.06A29.96,29.96,0,0,1,139.655,86.426Zm-29.917,33.241h86.426v6.648H109.739Zm86.426,13.3v13.3H176.22v-13.3Zm-86.426,0h59.833v6.648H109.739Zm0,13.3h59.833v3.324a3.324,3.324,0,0,0,3.324,3.324h23.269v16a19.833,19.833,0,0,0-6.648-2.4V162.88a3.324,3.324,0,0,0-3.324-3.324H119.711a3.324,3.324,0,0,0-3.324,3.324v10.3a16.465,16.465,0,0,0-6.648,3.075Zm9.972,53.185a9.972,9.972,0,1,1,9.972-9.972A9.972,9.972,0,0,1,119.711,199.445Zm46.836-16.62H134.922a16.667,16.667,0,0,0-11.887-9.64V166.2h59.834v.3A19.971,19.971,0,0,0,166.547,182.824Zm19.645,16.62a13.3,13.3,0,1,1,13.3-13.3A13.3,13.3,0,0,1,186.193,199.445Z" transform="translate(-0.035)"/><path class="b" d="M20,329.972a9.972,9.972,0,1,0-9.972,9.972A9.972,9.972,0,0,0,20,329.972Zm-13.3,0a3.324,3.324,0,1,1,3.324,3.324A3.324,3.324,0,0,1,6.705,329.972Z" transform="translate(-0.048 -187.037)"/><path class="b" d="M13.353,432a13.3,13.3,0,1,0,13.3,13.3A13.3,13.3,0,0,0,13.353,432Zm0,19.945A6.648,6.648,0,1,1,20,445.3,6.648,6.648,0,0,1,13.353,451.945Z" transform="translate(-0.048 -252.5)"/><path class="b" d="M58.029,368A9.972,9.972,0,1,0,68,377.972,9.972,9.972,0,0,0,58.029,368Zm0,13.3a3.324,3.324,0,1,1,3.324-3.324A3.324,3.324,0,0,1,58.029,381.3Z" transform="translate(-28.103 -215.092)"/><path class="b" d="M130.029,392A9.972,9.972,0,1,0,140,401.972,9.972,9.972,0,0,0,130.029,392Zm0,13.3a3.324,3.324,0,1,1,3.324-3.324A3.324,3.324,0,0,1,130.029,405.3Z" transform="translate(-70.187 -229.12)"/><path class="b" d="M133.353,304a13.3,13.3,0,1,0,13.3,13.3A13.3,13.3,0,0,0,133.353,304Zm0,19.945A6.648,6.648,0,1,1,140,317.3,6.648,6.648,0,0,1,133.353,323.945Z" transform="translate(-70.187 -177.685)"/><rect class="b" width="6.648" height="6.648" transform="translate(33.25 179.5)"/><rect class="b" width="6.648" height="6.648" transform="translate(46.546 189.473)"/></g></g></svg>